<?xml version="1.0" encoding="iso-8859-1"?>
<!-- Uploaded to: SVG Repo, www.svgrepo.com, Generator: SVG Repo Mixer Tools -->
<svg fill="#000000" height="800px" width="800px" version="1.1" id="Layer_1" xmlns="http://www.w3.org/2000/svg" xmlns:xlink="http://www.w3.org/1999/xlink" 
	 viewBox="0 0 512.002 512.002" xml:space="preserve">
<g>
	<g>
		<path d="M497.357,402.918l-146.922-146.92c28.155-28.155,112.116-112.116,142.031-142.031c26.036-26.036,26.036-68.398,0-94.435
			c-26.037-26.037-68.399-26.037-94.435,0L256,161.563L113.969,19.532c-26.036-26.037-68.398-26.036-94.435,0
			c-26.036,26.037-26.036,68.399,0,94.435C49.52,143.954,133.776,228.21,161.565,255.998
			c-8.335,8.336-137.75,137.751-146.919,146.92c-19.527,19.527-19.527,51.3,0,70.827l23.609,23.608
			c19.523,19.525,51.299,19.529,70.827,0c11.095-11.095,142.207-142.208,146.921-146.921l146.921,146.921
			c19.527,19.527,51.299,19.526,70.827,0l23.609-23.608C516.884,454.217,516.884,422.445,497.357,402.918z M421.64,43.14
			c13.048-13.048,34.168-13.048,47.218,0.001c13.018,13.018,13.018,34.199,0,47.217l-21.297,21.297l-47.218-47.218L421.64,43.14z
			 M376.735,88.046l47.218,47.218l-70.87,70.87c-2.986-11.214-8.867-21.5-17.293-29.925c-8.597-8.597-18.979-14.338-29.961-17.257
			L376.735,88.046z M64.44,111.656L43.143,90.358c-13.017-13.019-13.017-34.2,0.001-47.218c13.017-13.016,34.198-13.018,47.217,0
			l21.297,21.298L64.44,111.656z M88.05,135.264l47.218-47.218l97.125,97.126l-47.218,47.218L88.05,135.264z M85.472,473.744
			c-6.526,6.525-17.083,6.525-23.61,0l-23.608-23.609c-6.523-6.523-6.525-17.084,0-23.61l10.168-10.168l47.218,47.218
			L85.472,473.744z M119.248,439.969L72.03,392.751l88.719-88.72l47.218,47.218L119.248,439.969z M231.575,327.641l-47.218-47.218
			c12.34-12.338,68.719-68.717,80.611-80.61c13.018-13.012,34.197-13.011,47.212,0.004c13.047,13.048,13.051,34.167,0,47.218
			c0,0-0.001,0.001-0.002,0.002L231.575,327.641z M392.753,439.969L279.608,326.824l47.218-47.218l113.144,113.145L392.753,439.969z
			 M473.747,450.136l-23.608,23.609c-6.51,6.508-17.1,6.508-23.61,0l-10.168-10.168l47.218-47.218l10.168,10.168
			C480.257,433.036,480.257,443.628,473.747,450.136z"/>
	</g>
</g>
</svg>