<?xml version="1.0" encoding="UTF-8"?>
<svg version="1.1" xmlns="http://www.w3.org/2000/svg" viewbox="0 0 682 277">
<path d="M0 0 C225.06 0 450.12 0 682 0 C682 91.41 682 182.82 682 277 C456.94 277 231.88 277 0 277 C0 185.59 0 94.18 0 0 Z " fill="#FCFDFD" transform="translate(0,0)"/>
<path d="M0 0 C1.55657684 1.31589605 3.09829894 2.64955645 4.625 4 C5.47707031 4.74378906 6.32914063 5.48757812 7.20703125 6.25390625 C9.71001024 8.47168823 12.17240835 10.72676455 14.625 13 C15.21796875 13.52722656 15.8109375 14.05445313 16.421875 14.59765625 C34.77861421 31.68690633 46.22062491 56.92596551 51.625 81 C51.80305176 81.772229 51.98110352 82.54445801 52.16455078 83.34008789 C53.86941608 91.50561567 54.02549498 99.63038612 54 107.9375 C53.9987915 108.66610229 53.99758301 109.39470459 53.99633789 110.14538574 C53.83287503 146.53979437 39.24165392 179.25949633 13.875 205.1875 C-10.71794331 229.4814716 -43.86307171 243.48260584 -78.375 243.3125 C-79.15567841 243.31034485 -79.93635681 243.3081897 -80.74069214 243.30596924 C-92.15809669 243.25527666 -103.29491632 243.03373509 -114.375 240 C-115.46772217 239.70198486 -115.46772217 239.70198486 -116.58251953 239.39794922 C-151.48418332 229.49071529 -181.47709206 205.88338526 -199.27026367 174.31689453 C-215.01366591 145.32857067 -221.24928089 109.20649257 -212.375 77 C-212.15457031 76.19723633 -211.93414062 75.39447266 -211.70703125 74.56738281 C-203.37300494 45.32112383 -186.86024114 19.29629207 -162.375 1 C-161.37984375 0.25105469 -160.3846875 -0.49789063 -159.359375 -1.26953125 C-112.70859121 -34.9936816 -45.94237284 -36.0108179 0 0 Z " fill="#FCFDFD" transform="translate(218.375,31)"/>
<path d="M0 0 C5.80044256 2.00378925 9.41425586 5.64872421 12.8125 10.6875 C14.68820515 15.91973017 14.97166781 20.74911138 13.3671875 26.1171875 C8.23308999 36.83006813 -2.43370097 45.46626617 -10.71484375 53.6953125 C-11.21546326 54.19338409 -11.71608276 54.69145569 -12.23187256 55.20462036 C-14.72578942 57.68404639 -17.22602664 60.15637104 -19.73974609 62.61572266 C-25.95931022 68.75622 -31.57444679 75.15329505 -37 82 C-38.08480076 83.31689262 -39.1729605 84.63103105 -40.265625 85.94140625 C-52.61720004 100.88295852 -63.69497919 116.58767012 -74 133 C-74.95712891 134.52173828 -74.95712891 134.52173828 -75.93359375 136.07421875 C-79.23890098 141.39825125 -82.44605657 146.76206148 -85.58203125 152.1875 C-86.23526367 153.30511719 -86.88849609 154.42273438 -87.56152344 155.57421875 C-88.87297569 157.81949669 -90.17228785 160.0719197 -91.45800781 162.33203125 C-95.5847451 169.36678467 -98.99479011 174.3315967 -107 177 C-112.51156333 177.48514482 -117.37671062 177.76737316 -122.4375 175.375 C-126.86854441 171.26817835 -130.62102093 167.65444102 -131.2734375 161.36328125 C-131.30695313 160.35652344 -131.34046875 159.34976563 -131.375 158.3125 C-131.42398438 157.31863281 -131.47296875 156.32476562 -131.5234375 155.30078125 C-130.0456922 145.98216353 -122.08484914 139.75349285 -115.625 133.5 C-110.07757123 128.08465287 -104.59417762 122.70621037 -99.55566406 116.80957031 C-97.14233663 114.00235391 -94.59511729 111.32412008 -92.0625 108.625 C-87.90120414 104.14830817 -83.93714226 99.59497626 -80.1796875 94.76953125 C-78.48315548 92.61390186 -76.76160863 90.49509859 -75.0078125 88.38671875 C-67.93627009 79.86287152 -61.41266186 71.14035962 -55.28222656 61.91748047 C-54.06720253 60.1004967 -52.83107302 58.30034258 -51.5859375 56.50390625 C-46.31254622 48.83635446 -41.54474411 40.92383057 -36.875 32.875 C-36.27115479 31.83480713 -35.66730957 30.79461426 -35.04516602 29.72290039 C-31.87305329 24.25132126 -31.87305329 24.25132126 -28.72460938 18.76611328 C-21.29408383 5.77570675 -15.44297983 -1.1131899 0 0 Z " fill="#499CCB" transform="translate(195,50)"/>
<path d="M0 0 C1.55657684 1.31589605 3.09829894 2.64955645 4.625 4 C5.47707031 4.74378906 6.32914063 5.48757812 7.20703125 6.25390625 C9.71001024 8.47168823 12.17240835 10.72676455 14.625 13 C15.21796875 13.52722656 15.8109375 14.05445313 16.421875 14.59765625 C34.77861421 31.68690633 46.22062491 56.92596551 51.625 81 C51.80305176 81.772229 51.98110352 82.54445801 52.16455078 83.34008789 C53.86941608 91.50561567 54.02549498 99.63038612 54 107.9375 C53.9987915 108.66610229 53.99758301 109.39470459 53.99633789 110.14538574 C53.83287503 146.53979437 39.24165392 179.25949633 13.875 205.1875 C-10.71794331 229.4814716 -43.86307171 243.48260584 -78.375 243.3125 C-79.15567841 243.31034485 -79.93635681 243.3081897 -80.74069214 243.30596924 C-92.15809669 243.25527666 -103.29491632 243.03373509 -114.375 240 C-115.46772217 239.70198486 -115.46772217 239.70198486 -116.58251953 239.39794922 C-151.48418332 229.49071529 -181.47709206 205.88338526 -199.27026367 174.31689453 C-215.01366591 145.32857067 -221.24928089 109.20649257 -212.375 77 C-212.15457031 76.19723633 -211.93414062 75.39447266 -211.70703125 74.56738281 C-203.37300494 45.32112383 -186.86024114 19.29629207 -162.375 1 C-161.37984375 0.25105469 -160.3846875 -0.49789063 -159.359375 -1.26953125 C-112.70859121 -34.9936816 -45.94237284 -36.0108179 0 0 Z M-137.375 -6 C-137.9716748 -5.69336426 -138.56834961 -5.38672852 -139.18310547 -5.07080078 C-168.33963593 10.07677456 -191.6304206 36.590225 -202.08984375 67.87890625 C-202.5226429 69.25121996 -202.95106903 70.62492089 -203.375 72 C-203.69041748 72.97622314 -203.69041748 72.97622314 -204.01220703 73.97216797 C-210.62847858 95.35063526 -210.54167255 124.79162147 -203.375 146 C-203.10123535 146.81275391 -202.8274707 147.62550781 -202.54541016 148.46289062 C-191.01822168 181.52624098 -167.93185495 208.59903284 -136.36328125 224.13671875 C-105.86433932 238.58282069 -70.81866429 240.46372504 -38.89794922 229.57128906 C-6.10198138 217.79103469 19.77366708 194.04822151 34.875 162.6875 C46.84656302 136.84352335 50.63155439 106.72421089 43.625 79 C43.20734375 77.25589844 43.20734375 77.25589844 42.78125 75.4765625 C34.24111993 42.71485663 12.59150626 15.25205754 -16.375 -2 C-27.44809175 -8.42772626 -39.00864015 -12.75373181 -51.375 -16 C-52.3961792 -16.26901123 -52.3961792 -16.26901123 -53.43798828 -16.54345703 C-81.27511998 -23.48378672 -112.06818758 -19.19989884 -137.375 -6 Z " fill="#203A63" transform="translate(218.375,31)"/>
<path d="M0 0 C26.757962 21.07485502 44.9205757 50.49663324 49.98828125 84.4140625 C53.88866118 117.25549389 45.52126401 151.22367575 26.12890625 178.06640625 C4.77124183 204.90424467 -24.9782017 225.34265327 -59.73291016 229.51074219 C-75.8529225 230.89794906 -92.88340699 231.17145888 -108.55859375 226.75390625 C-109.77546875 226.41359375 -110.99234375 226.07328125 -112.24609375 225.72265625 C-133.24203999 219.24890616 -150.2167683 208.26509005 -166.55859375 193.75390625 C-167.2134375 193.18414062 -167.86828125 192.614375 -168.54296875 192.02734375 C-183.34322033 178.284253 -193.35672099 158.69169537 -199.55859375 139.75390625 C-199.78595215 139.06893066 -200.01331055 138.38395508 -200.24755859 137.67822266 C-207.37146189 114.91568154 -206.12077747 85.15268872 -198.55859375 62.75390625 C-198.1730835 61.61018555 -198.1730835 61.61018555 -197.77978516 60.44335938 C-185.77899408 26.23115939 -160.14033871 0.55298866 -127.98095703 -15.15039062 C-86.62158017 -33.85840144 -36.0231017 -27.3561981 0 0 Z M-155.55859375 7.75390625 C-156.51121094 8.5634375 -157.46382812 9.37296875 -158.4453125 10.20703125 C-177.30332819 26.53120046 -189.91653716 48.51541045 -196.37109375 72.50390625 C-196.57831055 73.2719458 -196.78552734 74.03998535 -196.99902344 74.83129883 C-204.53362857 104.52183601 -198.8203711 138.02855155 -183.65625 164.359375 C-177.92326202 173.63678013 -171.02298525 181.83251119 -163.55859375 189.75390625 C-162.99785156 190.3675 -162.43710938 190.98109375 -161.859375 191.61328125 C-141.47999971 213.12758543 -110.60245502 224.85606172 -81.33984375 225.95703125 C-70.76702665 226.15060079 -60.8465992 225.19657654 -50.55859375 222.75390625 C-49.78290039 222.57118164 -49.00720703 222.38845703 -48.20800781 222.20019531 C-30.52245565 217.85900173 -13.0582711 210.2055495 0.44140625 197.75390625 C1.25222656 197.05910156 2.06304687 196.36429688 2.8984375 195.6484375 C21.2099538 179.75595408 33.34113284 160.99767948 40.75390625 138.06640625 C40.99657227 137.31907227 41.23923828 136.57173828 41.48925781 135.80175781 C50.8644736 105.28920969 46.2068369 71.97622695 31.62890625 44.00390625 C25.72104456 33.10024892 17.91002246 23.75871045 9.44140625 14.75390625 C8.63509766 13.85091797 8.63509766 13.85091797 7.8125 12.9296875 C-11.28966505 -7.60873056 -41.75889407 -19.37182784 -69.26171875 -20.59375 C-100.84232909 -21.48527417 -131.49142959 -13.55272697 -155.55859375 7.75390625 Z " fill="#EFF3F6" transform="translate(214.55859375,37.24609375)"/>
<path d="M0 0 C21.27434552 17.73164148 35.52213849 39.68096952 43.06347656 66.33959961 C43.40378906 67.46624023 43.74410156 68.59288086 44.09472656 69.75366211 C51.54018131 99.19078413 45.1343756 132.93138294 30.16113281 158.94506836 C10.50113129 190.75985668 -18.01080671 209.76392947 -53.93652344 218.33959961 C-84.54453075 225.26720083 -115.5917447 216.93132219 -142.14355469 201.47241211 C-168.37924868 184.89888065 -188.42360223 157.46888267 -195.93652344 127.33959961 C-203.48864275 93.10086942 -198.02635261 58.64074865 -179.12402344 29.02709961 C-161.06834275 3.41239387 -136.67395111 -15.35540897 -105.93652344 -22.66040039 C-104.36064453 -23.10706055 -104.36064453 -23.10706055 -102.75292969 -23.56274414 C-67.75435447 -32.34273353 -27.89193748 -22.49186528 0 0 Z M-166.37451172 18.92944336 C-181.03873972 35.98012963 -189.5298069 56.4868053 -193.93652344 78.33959961 C-194.13117188 79.24838867 -194.32582031 80.15717773 -194.52636719 81.09350586 C-198.40426151 111.78426953 -190.28176677 143.43075166 -171.93652344 168.33959961 C-168.20676717 172.93484436 -164.09760513 177.13789369 -159.93652344 181.33959961 C-159.24945313 182.08725586 -158.56238281 182.83491211 -157.85449219 183.60522461 C-140.39811758 202.27435787 -111.85319452 214.76028454 -86.52584839 215.72564697 C-83.57496926 215.78991579 -80.62677538 215.80274055 -77.67529297 215.78564453 C-75.43722215 215.77710228 -73.20169073 215.80609684 -70.96386719 215.83764648 C-60.99037485 215.88621691 -52.43762465 214.41911311 -42.93652344 211.33959961 C-42.13537109 211.08815186 -41.33421875 210.8367041 -40.50878906 210.57763672 C-10.50145435 200.72464525 14.55079774 180.05414649 29.28662109 152.01196289 C44.02166959 122.37378549 46.2875855 89.69256295 36.36669922 58.12231445 C26.29129262 28.15279291 4.03887508 4.40343508 -23.74902344 -9.91040039 C-29.39573509 -12.69390278 -35.1709488 -14.99376653 -41.12402344 -17.03540039 C-41.81149658 -17.27419922 -42.49896973 -17.51299805 -43.20727539 -17.7590332 C-87.5098172 -32.0993805 -136.01124041 -14.64027188 -166.37451172 18.92944336 Z " fill="#4A97C6" transform="translate(213.9365234375,42.660400390625)"/>
<path d="M0 0 C4.23142409 1.56572601 6.54854188 4.73874586 9.3125 8.125 C13.94058219 13.66446508 18.7265581 19.00662669 23.6875 24.25 C31.64727527 32.67233123 39.39946563 41.25083182 47 50 C42.88708005 50 40.87991238 47.8413031 37.8125 45.375 C37.23314697 44.9214917 36.65379395 44.4679834 36.05688477 44.00073242 C33.51914535 42.01389143 31.00423169 40.00345566 28.5078125 37.96484375 C27.48300781 37.14693359 27.48300781 37.14693359 26.4375 36.3125 C25.56931641 35.59513672 25.56931641 35.59513672 24.68359375 34.86328125 C23.00338629 33.81530033 23.00338629 33.81530033 20.91015625 34.16796875 C18.64169047 34.9510458 18.64169047 34.9510458 17 38 C16.01 38 15.02 38 14 38 C11.55433443 35.10627357 9.33565196 32.12988793 7.11523438 29.06445312 C6.41043945 28.12182617 6.41043945 28.12182617 5.69140625 27.16015625 C5.27060791 26.57886963 4.84980957 25.99758301 4.41625977 25.39868164 C2.61632895 23.62109094 1.52381531 23.16326164 -1 23 C-2.8923906 24.03605343 -2.8923906 24.03605343 -4.6015625 25.7109375 C-5.25640625 26.29617187 -5.91125 26.88140625 -6.5859375 27.484375 C-7.59527344 28.42023438 -7.59527344 28.42023438 -8.625 29.375 C-9.97000534 30.59263741 -11.31629975 31.80885288 -12.6640625 33.0234375 C-13.25654785 33.56919434 -13.8490332 34.11495117 -14.45947266 34.67724609 C-16 36 -16 36 -18 37 C-18.28680103 53.40501868 -17.77564216 69.65608917 -16.71142578 86.02050781 C-16.23805136 93.44410268 -15.89828056 100.84513678 -15.86328125 108.28515625 C-15.85711792 108.9878212 -15.85095459 109.69048615 -15.84460449 110.41444397 C-15.85585814 115.6923652 -16.34776634 119.42718335 -19 124 C-22.0126689 126.76161316 -23.46718008 127 -27.5625 127 C-31.65050039 125.81076352 -32.78929734 124.57113506 -35 121 C-36.03183821 117.90448537 -36.12909545 115.7559043 -36.1328125 112.51171875 C-36.13410156 111.41150391 -36.13539063 110.31128906 -36.13671875 109.17773438 C-36.13285156 108.02595703 -36.12898437 106.87417969 -36.125 105.6875 C-36.12886719 104.57826172 -36.13273438 103.46902344 -36.13671875 102.32617188 C-36.13013805 96.63715851 -35.95617564 91.02482687 -35.4765625 85.35546875 C-35.03033461 79.7581512 -35.01182313 74.26890195 -35.140625 68.6640625 C-35.69126818 37.52723697 -35.69126818 37.52723697 -27.875 29.0625 C-26.15448199 27.36449821 -24.41254754 25.78450649 -22.53417969 24.26367188 C-20.57535528 22.65022898 -19.067211 20.80134645 -17.5 18.8125 C-13.66024769 14.47572392 -9.48992703 10.4413639 -5.35351562 6.38989258 C-2.29748166 3.4868023 -2.29748166 3.4868023 0 0 Z " fill="#4999C9" transform="translate(176,120)"/>
<path d="M0 0 C4.94153949 3.49523525 8.49774394 7.0529173 10.5625 12.8125 C11.51648525 18.95574569 10.84769147 23.95961192 7.53125 29.23828125 C-2.66028207 42.56411386 -15.54568347 54.04467579 -27.4375 65.8125 C-28.0975 64.8225 -28.7575 63.8325 -29.4375 62.8125 C-32.52115871 62.5622843 -32.52115871 62.5622843 -35.4375 62.8125 C-35.4375 62.1525 -35.4375 61.4925 -35.4375 60.8125 C-37.0875 60.4825 -38.7375 60.1525 -40.4375 59.8125 C-40.4375 58.4925 -40.4375 57.1725 -40.4375 55.8125 C-41.7575 55.1525 -43.0775 54.4925 -44.4375 53.8125 C-44.4375 53.1525 -44.4375 52.4925 -44.4375 51.8125 C-45.0975 51.8125 -45.7575 51.8125 -46.4375 51.8125 C-46.9325 50.3275 -46.9325 50.3275 -47.4375 48.8125 C-49.0875 51.1225 -50.7375 53.4325 -52.4375 55.8125 C-53.0975 55.4825 -53.7575 55.1525 -54.4375 54.8125 C-54.00518066 54.11914551 -53.57286133 53.42579102 -53.12744141 52.71142578 C-51.10133606 49.45620367 -49.08069026 46.19763212 -47.0625 42.9375 C-46.69679901 42.34759277 -46.33109802 41.75768555 -45.95431519 41.14990234 C-41.41441935 33.81602298 -37.05474788 26.42844654 -33 18.8125 C-25.70899006 5.25425944 -16.83671052 -5.81631818 0 0 Z " fill="#52B3DE" transform="translate(198.4375,51.1875)"/>
<path d="M0 0 C1.32 0.66 2.64 1.32 4 2 C3.9071875 3.3921875 3.9071875 3.3921875 3.8125 4.8125 C3.73191167 7.87947075 3.73191167 7.87947075 5.0625 9.65625 C7.99036358 11.68686507 10.66962122 11.52612941 14.1875 11.6875 C15.45980469 11.75324219 16.73210937 11.81898438 18.04296875 11.88671875 C19.50669922 11.94279297 19.50669922 11.94279297 21 12 C21 12.66 21 13.32 21 14 C16.545 14.495 16.545 14.495 12 15 C12 15.33 12 15.66 12 16 C15.40237686 16.41661757 17.97701901 16.64447802 20.953125 14.76953125 C23.80535937 12.3427352 25.90995627 10.13506559 28 7 C28.99 7 29.98 7 31 7 C29.75764605 11.15251517 28.25078784 14.47294309 25.84375 18.0703125 C23.20150775 22.10889498 20.69108951 26.18548179 18.28125 30.3671875 C17.65863281 31.43710938 17.03601563 32.50703125 16.39453125 33.609375 C15.12132357 35.80401752 13.85843817 38.00467795 12.60546875 40.2109375 C8.45321676 47.29469659 5.06084645 52.31305118 -3 55 C-8.51156333 55.48514482 -13.37671062 55.76737316 -18.4375 53.375 C-22.86854441 49.26817835 -26.62102093 45.65444102 -27.2734375 39.36328125 C-27.32371094 37.85314453 -27.32371094 37.85314453 -27.375 36.3125 C-27.42398438 35.31863281 -27.47296875 34.32476562 -27.5234375 33.30078125 C-25.98979167 23.62965641 -17.37910903 17.02248396 -10.6875 10.5 C-9.64969232 9.47727061 -8.61257703 8.45383814 -7.57617188 7.4296875 C-5.05870922 4.9449712 -2.53202003 2.46989043 0 0 Z " fill="#4085BB" transform="translate(91,172)"/>
<path d="M0 0 C3.7425954 3.13333568 6.6875006 6.20132447 7.24291992 11.17553711 C7.23675659 12.3396814 7.23675659 12.3396814 7.23046875 13.52734375 C7.22853516 14.40326172 7.22660156 15.27917969 7.22460938 16.18164062 C7.20624023 17.54579102 7.20624023 17.54579102 7.1875 18.9375 C7.18685547 19.81212891 7.18621094 20.68675781 7.18554688 21.58789062 C7.15417584 26.38765898 6.92395862 31.11819678 6.4921875 35.8984375 C6.01813326 41.57659111 5.94847546 47.19455362 5.96484375 52.88671875 C5.95728618 55.57398375 5.94713936 58.26123085 5.93676758 60.94848633 C5.93725731 62.77991276 5.95035324 64.61137767 5.97583008 66.44262695 C6.18959979 83.69645695 6.18959979 83.69645695 1.15625 89.98046875 C-0.20950006 91.34035382 -1.59415728 92.68160444 -3 94 C-4.17579259 95.51894105 -5.32673361 97.05787902 -6.4375 98.625 C-7.26682829 99.76843355 -8.11274427 100.90090812 -9 102 C-9.33 102 -9.66 102 -10 102 C-10.01981934 100.73333496 -10.03963867 99.46666992 -10.06005859 98.16162109 C-10.51972757 66.26588178 -10.51972757 66.26588178 -12.33935547 34.42724609 C-14.13560564 11.84339 -14.13560564 11.84339 -10 4 C-6.88761889 0.72380936 -4.55990476 -1.02597857 0 0 Z " fill="#193862" transform="translate(127,32)"/>
<path d="M0 0 C21.27434552 17.73164148 35.52213849 39.68096952 43.06347656 66.33959961 C43.40378906 67.46624023 43.74410156 68.59288086 44.09472656 69.75366211 C50.15036997 93.69588188 46.35630162 119.52613622 38.06347656 142.33959961 C36.74347656 141.67959961 35.42347656 141.01959961 34.06347656 140.33959961 C34.33611328 139.39213867 34.33611328 139.39213867 34.61425781 138.42553711 C36.75871183 130.79348025 38.4722063 123.10423162 40.06347656 115.33959961 C40.32257813 114.17702637 40.32257813 114.17702637 40.58691406 112.9909668 C45.73749539 84.33558094 36.99233078 53.42496926 20.93896484 29.67602539 C5.43978476 7.55966042 -15.67361798 -7.30706877 -41.12402344 -16.03540039 C-42.15523315 -16.39359863 -42.15523315 -16.39359863 -43.20727539 -16.7590332 C-71.43091 -25.89477814 -103.53961365 -21.61569567 -129.7409668 -8.61157227 C-146.59366597 0.20584616 -160.82194696 12.35095667 -172.01074219 27.72241211 C-173.93652344 30.33959961 -173.93652344 30.33959961 -175.93652344 32.33959961 C-177.25652344 31.67959961 -178.57652344 31.01959961 -179.93652344 30.33959961 C-160.59080916 4.44927135 -137.79810767 -14.9190031 -105.93652344 -22.66040039 C-104.88335937 -22.95946289 -103.83019531 -23.25852539 -102.74511719 -23.56665039 C-67.73960021 -32.32817028 -27.8974956 -22.4963473 0 0 Z " fill="#5CB7DA" transform="translate(213.9365234375,42.660400390625)"/>
<path d="M0 0 C3.3 0 6.6 0 10 0 C10.33 0.99 10.66 1.98 11 3 C11.53882813 2.51402344 12.07765625 2.02804688 12.6328125 1.52734375 C16.99000405 -1.28397951 22.00306542 -0.58945073 27 0 C31.31188572 1.92494898 34.11990923 4.49060034 36.3046875 8.75 C38.27065999 15.11179863 38.09912426 22.48879652 35.3125 28.5625 C32.77036262 32.83545432 29.73799934 35.42066689 25 37 C18.81667142 37.39892442 17.65750129 37.39450078 12 34 C11.67 38.95 11.34 43.9 11 49 C7.37 49 3.74 49 0 49 C0 32.83 0 16.66 0 0 Z " fill="#203B65" transform="translate(642,94)"/>
<path d="M0 0 C3.63 0 7.26 0 11 0 C11.33773438 1.08539063 11.67546875 2.17078125 12.0234375 3.2890625 C12.47392751 4.73438461 12.92445007 6.17969657 13.375 7.625 C13.59671875 8.33785156 13.8184375 9.05070312 14.046875 9.78515625 C15.32164924 13.87193248 16.63079542 17.94357149 18 22 C18.17015625 21.24976562 18.3403125 20.49953125 18.515625 19.7265625 C20.13943172 12.86857031 22.18434567 6.46028302 25 0 C27.97 0 30.94 0 34 0 C35.00935129 2.8928729 36.00768744 5.78878515 37 8.6875 C37.28617187 9.50412109 37.57234375 10.32074219 37.8671875 11.16210938 C40.42266949 18.67644333 40.42266949 18.67644333 40 23 C40.66 23 41.32 23 42 23 C42.0825 22.113125 42.165 21.22625 42.25 20.3125 C43.22182178 13.35254111 45.78524082 6.64427755 48 0 C51.3 0 54.6 0 58 0 C56.62247021 6.75678364 54.73397408 13.1678476 52.5 19.6875 C52.19191406 20.59822266 51.88382812 21.50894531 51.56640625 22.44726562 C50.97578489 24.19251373 50.38343896 25.93717953 49.7890625 27.68115234 C48.84688218 30.4499731 47.92073601 33.22398092 47 36 C43.37 36 39.74 36 36 36 C35.2054739 33.81353696 34.4145142 31.62577779 33.625 29.4375 C33.18414062 28.21933594 32.74328125 27.00117187 32.2890625 25.74609375 C31.07015982 22.2038887 30.0291209 18.60192317 29 15 C27.02 21.93 25.04 28.86 23 36 C19.37 36 15.74 36 12 36 C8.95190164 28.58570668 6.2678357 21.10945899 3.75 13.5 C3.38648438 12.4171875 3.02296875 11.334375 2.6484375 10.21875 C2.30554688 9.1875 1.96265625 8.15625 1.609375 7.09375 C1.29967773 6.16240234 0.98998047 5.23105469 0.67089844 4.27148438 C0 2 0 2 0 0 Z " fill="#203B65" transform="translate(424,94)"/>
<path d="M0 0 C4.4907299 2.86642334 7.48865062 5.88711677 9.1875 11 C10.00610856 16.97876609 10.12509964 22.09131501 7.4375 27.5625 C6.695 28.366875 5.9525 29.17125 5.1875 30 C4.2284375 31.11375 4.2284375 31.11375 3.25 32.25 C-1.83186427 36.56188484 -7.32143375 36.42782645 -13.71484375 36.3125 C-19.31085269 35.74795938 -22.10627092 32.91906046 -25.625 28.875 C-29.87037216 23.29536802 -29.51743605 17.84909456 -28.8125 11 C-26.7325687 5.2712237 -23.15170811 1.90174354 -17.8125 -1 C-11.7224256 -3.0300248 -5.78196935 -2.88614216 0 0 Z " fill="#1F3B66" transform="translate(624.8125,95)"/>
<path d="M0 0 C0 3.63 0 7.26 0 11 C-1.4025 10.505 -2.805 10.01 -4.25 9.5 C-10.10341165 7.73561449 -15.91986965 7.25922462 -22 8 C-24.21325664 9.75729589 -24.21325664 9.75729589 -24.0625 11.9375 C-22.65590771 14.66794385 -20.82703801 15.28595478 -18.03125 16.3515625 C-16.01276638 16.99592458 -13.9999036 17.51612839 -11.9375 18 C-7.1367747 19.14214548 -3.38807795 20.79456389 0.375 24.0625 C2.7557219 28.36611267 2.63518593 32.18846656 2 37 C0.11283028 42.10645923 -3.30542561 43.69389328 -8 46 C-15.37668639 48.45347939 -25.38430278 48.17843123 -32.4375 45 C-33.613125 44.34 -34.78875 43.68 -36 43 C-36 39.37 -36 35.74 -36 32 C-33.9271875 32.9590625 -33.9271875 32.9590625 -31.8125 33.9375 C-24.86052806 36.99723259 -17.3894376 38.46314587 -10 36 C-10 34.02 -10 32.04 -10 30 C-11.0621875 29.76925781 -12.124375 29.53851563 -13.21875 29.30078125 C-29.18619684 25.67782002 -29.18619684 25.67782002 -34 21 C-36.76209518 16.5973315 -36.87526804 12.03472768 -36 7 C-33.807462 2.80218704 -30.81167439 0.49337071 -26.8125 -1.9375 C-17.50615482 -4.53107161 -9.09852949 -2.66763168 0 0 Z " fill="#203B66" transform="translate(331,84)"/>
<path d="M0 0 C1.21171875 -0.02578125 2.4234375 -0.0515625 3.671875 -0.078125 C8.24069515 0.34084977 11.52103125 1.63602205 14.89453125 4.78515625 C19.87126373 11.29319104 19.91527609 16.12412773 19.25 24.25 C17.99254268 29.09045319 15.99499551 32.11395395 11.6875 34.6875 C5.33152182 37.57658099 -1.35484549 38.87271433 -8.109375 36.37890625 C-13.05661136 33.54261473 -15.34093744 30.35721263 -17.75 25.25 C-18.08 24.59 -18.41 23.93 -18.75 23.25 C-19.58293316 16.84831374 -18.95012983 12.23260445 -15.1875 6.94140625 C-10.53642567 1.46881063 -6.99014964 0.08848291 0 0 Z " fill="#1D3965" transform="translate(400.75,93.75)"/>
<path d="M0 0 C1.24426758 -0.02416992 1.24426758 -0.02416992 2.51367188 -0.04882812 C8.00204279 -0.05315991 11.79592937 0.81060355 16.6875 3.3125 C16.6875 6.6125 16.6875 9.9125 16.6875 13.3125 C15.264375 12.8175 13.84125 12.3225 12.375 11.8125 C6.72470318 10.10370838 -0.79700798 8.55475399 -6.3125 11.3125 C-6.3125 12.9625 -6.3125 14.6125 -6.3125 16.3125 C-1.96136665 18.00460741 2.2994222 19.49085058 6.8125 20.6875 C11.50734856 22.05472092 14.23897022 23.86397022 17.6875 27.3125 C19.89817859 31.73385718 19.08533093 37.07220356 17.625 41.625 C14.43644756 46.04783081 10.05762393 48.31384538 4.6875 49.3125 C-4.27761886 49.94913824 -11.33207872 49.79273651 -19.3125 45.3125 C-19.3125 41.6825 -19.3125 38.0525 -19.3125 34.3125 C-18.47847656 34.6734375 -17.64445312 35.034375 -16.78515625 35.40625 C-9.97278294 38.21547611 -4.6891515 40.13212794 2.6875 39.3125 C4.87756821 38.34576434 4.87756821 38.34576434 6.6875 37.3125 C6.1925 34.8375 6.1925 34.8375 5.6875 32.3125 C4.54152344 32.02117187 3.39554688 31.72984375 2.21484375 31.4296875 C-13.04562219 27.36940948 -13.04562219 27.36940948 -18.3125 21.3125 C-19.67862444 17.21412668 -20.07122494 13.58830501 -19.3125 9.3125 C-14.60538658 1.17088038 -8.8010701 -0.03372058 0 0 Z " fill="#1F3C67" transform="translate(527.3125,81.6875)"/>
<path d="M0 0 C3.96 0 7.92 0 12 0 C12 5.61 12 11.22 12 17 C13.65 16.01 15.3 15.02 17 14 C21.81904421 13.29376076 26.42907488 13.41090308 31 15.125 C34.33599465 18.25249498 35.85182032 21.62527494 36.34057617 26.15966797 C36.3170105 27.80926514 36.3170105 27.80926514 36.29296875 29.4921875 C36.2784668 31.29042969 36.2784668 31.29042969 36.26367188 33.125 C36.23853516 34.3625 36.21339844 35.6 36.1875 36.875 C36.16719727 38.76605469 36.16719727 38.76605469 36.14648438 40.6953125 C36.11123435 43.79731454 36.06195504 46.89843534 36 50 C32.37 50 28.74 50 25 50 C24.95101562 48.29070312 24.90203125 46.58140625 24.8515625 44.8203125 C24.77654442 42.58852471 24.70099619 40.3567547 24.625 38.125 C24.5940625 36.99707031 24.563125 35.86914062 24.53125 34.70703125 C24.49257813 33.63066406 24.45390625 32.55429688 24.4140625 31.4453125 C24.36693115 29.95281982 24.36693115 29.95281982 24.31884766 28.43017578 C24.22752917 25.82145483 24.22752917 25.82145483 22 24 C17.40677479 23.46185443 17.40677479 23.46185443 13.30932617 25.18676758 C11.54599225 27.62873682 11.57105735 29.32772388 11.48828125 32.32421875 C11.45283203 33.35224609 11.41738281 34.38027344 11.38085938 35.43945312 C11.34702148 37.04723633 11.34702148 37.04723633 11.3125 38.6875 C11.27833984 39.77095703 11.24417969 40.85441406 11.20898438 41.97070312 C11.1264625 44.64676977 11.06155614 47.32336903 11 50 C7.37 50 3.74 50 0 50 C0 33.5 0 17 0 0 Z " fill="#223E69" transform="translate(553,80)"/>
<path d="M0 0 C0.66 0 1.32 0 2 0 C2.01981934 0.67764404 2.03963867 1.35528809 2.06005859 2.0534668 C2.41854588 13.79937212 2.82752837 25.49687313 4.0625 37.1875 C6.60481771 62.05984158 6.60481771 62.05984158 1 70 C-2.45869653 72.06417218 -4.96678921 72.65848339 -9 72 C-13.37724798 67.62275202 -15.12460448 64.38372315 -15.1328125 58.2734375 C-15.13680054 56.86179321 -15.13680054 56.86179321 -15.14086914 55.42163086 C-15.11921839 51.26502027 -15.08020546 47.10892299 -15.02392578 42.95263672 C-15.00293599 40.36232553 -15.0362746 37.78095002 -15.08984375 35.19140625 C-15.13219627 24.102519 -11.41912443 17.69687826 -5 9 C-3.24145858 6.04629427 -1.60116459 3.04140811 0 0 Z " fill="#193761" transform="translate(130,175)"/>
<path d="M0 0 C112.53 0 225.06 0 341 0 C341 0.99 341 1.98 341 3 C228.47 3 115.94 3 0 3 C0 2.01 0 1.02 0 0 Z " fill="#61ADC8" transform="translate(294,140)"/>
<path d="M0 0 C4.27032172 1.12376887 5.2859802 2.22761588 7.5625 5.9375 C10.61943025 12.29033426 10.04947308 19.17132348 9.9375 26.0625 C9.92683502 26.77903748 9.91617004 27.49557495 9.90518188 28.23382568 C9.595392 41.12086837 6.30379424 50.19877743 -2.00244141 60.17675781 C-3.38153339 61.86883188 -4.58008038 63.59609231 -5.76171875 65.4296875 C-6.31472656 66.25726563 -6.86773437 67.08484375 -7.4375 67.9375 C-7.7675 67.9375 -8.0975 67.9375 -8.4375 67.9375 C-9.55011122 52.07983108 -10.6269418 36.21251804 -10.8125 20.3125 C-10.83828125 19.26078613 -10.8640625 18.20907227 -10.890625 17.12548828 C-10.90711968 10.83998326 -10.21807957 7.02831653 -6.4375 1.9375 C-3.4375 -0.0625 -3.4375 -0.0625 0 0 Z " fill="#57B3DE" transform="translate(150.4375,32.0625)"/>
<path d="M0 0 C3.63 0 7.26 0 11 0 C11.33 0.99 11.66 1.98 12 3 C12.82177734 2.26910156 12.82177734 2.26910156 13.66015625 1.5234375 C17.75926519 -1.14543143 22.27506656 -0.51953206 27 0 C30.80420886 1.58508703 32.88421381 3.48987845 35 7 C35.34057617 10.11621094 35.34057617 10.11621094 35.29296875 13.734375 C35.2784668 15.67763672 35.2784668 15.67763672 35.26367188 17.66015625 C35.23860783 19.02344354 35.21321302 20.38672479 35.1875 21.75 C35.17244518 23.12889184 35.15875817 24.50779935 35.14648438 25.88671875 C35.11111909 29.25820915 35.06175904 32.62890654 35 36 C31.37 36 27.74 36 24 36 C23.505 23.625 23.505 23.625 23 11 C20.20129973 9.60064987 18.09501208 9.74734595 15 10 C12.66378877 11.66528519 12.06976095 12.60439908 11.56762695 15.4519043 C11.54144287 16.39976807 11.51525879 17.34763184 11.48828125 18.32421875 C11.45283203 19.35224609 11.41738281 20.38027344 11.38085938 21.43945312 C11.34702148 23.04723633 11.34702148 23.04723633 11.3125 24.6875 C11.27833984 25.77095703 11.24417969 26.85441406 11.20898438 27.97070312 C11.1264625 30.64676977 11.06155614 33.32336903 11 36 C7.37 36 3.74 36 0 36 C0 24.12 0 12.24 0 0 Z " fill="#1F3963" transform="translate(340,94)"/>
<path d="M0 0 C1.37195122 15.54878049 1.37195122 15.54878049 -1.7578125 21.140625 C-4.05181615 23.61348317 -6.4694892 25.77136162 -9 28 C-10.00370799 29.29341501 -11.00619427 30.58777851 -12.0078125 31.8828125 C-16.60552656 37.21628499 -22.44760389 39.52064013 -28.8125 42.25 C-29.93720703 42.75273437 -31.06191406 43.25546875 -32.22070312 43.7734375 C-35.46756686 45.21481106 -38.72865833 46.61520828 -42 48 C-42.98403809 48.42345703 -43.96807617 48.84691406 -44.98193359 49.28320312 C-46.32698975 49.8468457 -46.32698975 49.8468457 -47.69921875 50.421875 C-48.48514404 50.7528418 -49.27106934 51.08380859 -50.08081055 51.42480469 C-52 52 -52 52 -54 51 C-49.45039225 46.42485803 -44.89672678 41.85378313 -40.34033203 37.28540039 C-38.79351499 35.73358112 -37.24759993 34.18086219 -35.70263672 32.62719727 C-33.47084213 30.3831559 -31.23573155 28.14246196 -29 25.90234375 C-28.31945557 25.21663803 -27.63891113 24.53093231 -26.93774414 23.82444763 C-23.01443789 19.90069245 -18.98980342 16.1626471 -14.77316284 12.55517578 C-11.56446105 9.74094169 -8.64492261 6.65094372 -5.6953125 3.56835938 C-2.2110892 0 -2.2110892 0 0 0 Z " fill="#448EC0" transform="translate(112,123)"/>
<path d="M0 0 C-1.43578356 4.77858219 -3.49616651 9.04171232 -5.8125 13.4375 C-20.43050162 42.07144931 -21.82338353 73.54509893 -12.0546875 103.94921875 C-10.68051858 107.92412959 -9.19565627 111.85177574 -7.63671875 115.7578125 C-7 118 -7 118 -8 121 C-7.60602665 123.63804589 -7.60602665 123.63804589 -7 126 C-11.33926992 120.74652187 -13.48639177 114.25756153 -16 108 C-16.58007812 106.57300781 -16.58007812 106.57300781 -17.171875 105.1171875 C-27.27752405 77.83193506 -25.47130522 44.26573479 -13.77734375 17.83984375 C-5.57201974 0 -5.57201974 0 0 0 Z " fill="#4D96C8" transform="translate(38,74)"/>
<path d="M0 0 C3.17658102 2.91473703 5.14660666 5.77802865 7.1875 9.5625 C21.2941895 34.21931956 45.9808213 52.65498368 73 61 C72.01 61.495 72.01 61.495 71 62 C71 62.99 71 63.98 71 65 C44.18272609 58.81139833 19.83496524 38.38745912 5 15.75 C4.62584961 15.18361816 4.25169922 14.61723633 3.86621094 14.03369141 C1.38026279 10.08359123 -0.02959348 6.5212122 -1 2 C-0.67 1.34 -0.34 0.68 0 0 Z " fill="#4783B7" transform="translate(30,192)"/>
<path d="M0 0 C11.56312967 5.83448534 23.09716354 13.61341494 31 24 C29.02 24.99 29.02 24.99 27 26 C26.59652344 25.53851563 26.19304687 25.07703125 25.77734375 24.6015625 C3.48996885 0.65801324 -29.22032294 -7.68395573 -60.64453125 -8.8515625 C-62.09632005 -8.90203283 -63.54813038 -8.95191061 -65 -9 C-65 -9.33 -65 -9.66 -65 -10 C-60.05 -10 -55.1 -10 -50 -10 C-50 -10.66 -50 -11.32 -50 -12 C-34.91497592 -17.02834136 -13.52148571 -6.4365763 0 0 Z " fill="#60BCDE" transform="translate(194,30)"/>
<path d="M0 0 C0.33 0.66 0.66 1.32 1 2 C-3.455 2.495 -3.455 2.495 -8 3 C-7.02417969 3.10957031 -6.04835938 3.21914062 -5.04296875 3.33203125 C-3.77066406 3.49058594 -2.49835938 3.64914063 -1.1875 3.8125 C0.07707031 3.96332031 1.34164062 4.11414063 2.64453125 4.26953125 C5.93178432 4.98514979 7.13723331 5.27595409 9 8 C9.625 10.6875 9.625 10.6875 9 14 C6.55288131 17.47949689 3.85409707 21.07295146 0 23 C-3.5 23.25 -3.5 23.25 -7 23 C-7.66 22.01 -8.32 21.02 -9 20 C-5.37 20 -1.74 20 2 20 C2 19.34 2 18.68 2 18 C1.03578125 18.04640625 0.0715625 18.0928125 -0.921875 18.140625 C-2.18515625 18.17671875 -3.4484375 18.2128125 -4.75 18.25 C-6.62945312 18.31960937 -6.62945312 18.31960937 -8.546875 18.390625 C-12 18 -12 18 -14.41015625 16.15625 C-16 14 -16 14 -16.6875 11.25 C-15.65342721 6.36165588 -12.56798088 3.38231672 -9 0 C-5.88173308 -1.55913346 -3.32926126 -0.66585225 0 0 Z " fill="#F8FBFB" transform="translate(110,166)"/>
<path d="M0 0 C0.66 0.33 1.32 0.66 2 1 C2 1.66 2 2.32 2 3 C-0.97 3 -3.94 3 -7 3 C-4.81008933 5.18991067 0.15215659 4.3876891 3.1171875 4.5234375 C6 5 6 5 7.859375 6.35546875 C9.65821527 8.94900216 9.37551507 10.93329363 9 14 C8.0703125 16.16015625 8.0703125 16.16015625 6 18 C2.82854393 18.61308557 -0.27948461 18.55742375 -3.5 18.5 C-4.36753906 18.51546875 -5.23507813 18.5309375 -6.12890625 18.546875 C-12.4191333 18.50798642 -12.4191333 18.50798642 -15.0859375 16.17578125 C-16.56813593 12.64764226 -16.11160442 10.64359227 -15 7 C-10.85801883 0.86461579 -7.28564404 -0.98788394 0 0 Z " fill="#FAFCFC" transform="translate(169,89)"/>
<path d="M0 0 C14.28735799 -1.22172182 14.28735799 -1.22172182 18.3984375 1.7109375 C20.38439436 4.39440116 22 6.59461386 22 10 C22.66 10 23.32 10 24 10 C24 6.7 24 3.4 24 0 C24.66 0 25.32 0 26 0 C26 4.95 26 9.9 26 15 C25.01 15 24.02 15 23 15 C21.39453125 13.03125 21.39453125 13.03125 19.8125 10.5 C19.28269531 9.6646875 18.75289062 8.829375 18.20703125 7.96875 C17.80871094 7.3190625 17.41039062 6.669375 17 6 C16.67 8.97 16.34 11.94 16 15 C10.72 15 5.44 15 0 15 C0 10.05 0 5.1 0 0 Z " fill="#E7F5F9" transform="translate(557,151)"/>
<path d="M0 0 C7 0 14 0 21 0 C21 0.99 21 1.98 21 3 C19.35 3 17.7 3 16 3 C15.67 3.99 15.34 4.98 15 6 C16.423125 6.185625 16.423125 6.185625 17.875 6.375 C21 7 21 7 23 9 C22.75 11.5625 22.75 11.5625 22 14 C19.0387106 15.4806447 16.26914933 15.05837767 13 15 C12.34 15 11.68 15 11 15 C7.33333333 15 3.66666667 15 0 15 C0 10.05 0 5.1 0 0 Z " fill="#EDF7FA" transform="translate(373,151)"/>
<path d="M0 0 C1.59989556 0.23893023 3.20381429 0.45504778 4.8125 0.625 C5.1425 0.295 5.4725 -0.035 5.8125 -0.375 C7.49858966 -0.44705511 9.18750659 -0.45886068 10.875 -0.4375 C11.79410156 -0.42847656 12.71320313 -0.41945312 13.66015625 -0.41015625 C14.37042969 -0.39855469 15.08070313 -0.38695312 15.8125 -0.375 C15.8125 0.285 15.8125 0.945 15.8125 1.625 C13.1725 1.625 10.5325 1.625 7.8125 1.625 C7.8125 3.275 7.8125 4.925 7.8125 6.625 C10.1225 6.625 12.4325 6.625 14.8125 6.625 C14.8125 6.955 14.8125 7.285 14.8125 7.625 C12.5025 7.625 10.1925 7.625 7.8125 7.625 C7.8125 9.275 7.8125 10.925 7.8125 12.625 C10.4525 12.625 13.0925 12.625 15.8125 12.625 C15.8125 13.285 15.8125 13.945 15.8125 14.625 C12.229594 14.77033755 8.64744583 14.85907931 5.0625 14.9375 C3.53882813 15.0003418 3.53882813 15.0003418 1.984375 15.06445312 C-5.52385924 15.18794382 -5.52385924 15.18794382 -8.890625 12.33203125 C-10.66615449 8.62588085 -10.34376384 6.52739046 -9.1875 2.625 C-6.11202141 -0.4435674 -4.21071409 -0.65928463 0 0 Z " fill="#EBF7FA" transform="translate(496.1875,151.375)"/>
<path d="M0 0 C2.30275556 1.8670991 3.67823871 3.35647741 5 6 C5.35438737 11.40440735 5.38129657 14.53668852 2 19 C1 20 1 20 -2.875 20.25 C-6.70169024 20.2020808 -6.70169024 20.2020808 -8.9375 18.6875 C-11.57605375 14.4968558 -11.73722519 9.78358615 -11 5 C-7.90494929 0.53948574 -5.42331926 -1.03850794 0 0 Z " fill="#F4F6F7" transform="translate(618,102)"/>
<path d="M0 0 C3.0625 0.5625 3.0625 0.5625 5.9375 2.4375 C8.9185387 6.82138044 8.94948187 10.40955772 8.0625 15.5625 C6.5625 18.6875 6.5625 18.6875 4.0625 20.5625 C1.04828837 21.23569415 -0.76110153 21.01627121 -3.9375 20.5625 C-6.26582123 18.31355335 -6.88644266 16.90104237 -7.37109375 13.6875 C-7.37238281 12.65625 -7.37367188 11.625 -7.375 10.5625 C-7.39433594 9.53125 -7.41367187 8.5 -7.43359375 7.4375 C-6.64588578 2.87251524 -4.50242612 0.8621667 0 0 Z " fill="#F6F8F9" transform="translate(400.9375,101.4375)"/>
<path d="M0 0 C2.36125898 1.82807147 2.8881527 3.15720698 3.27734375 6.08984375 C3.4759558 10.86447744 3.11742401 14.16317045 0 18 C-2.87470493 19.43735246 -4.81894588 19.38172649 -8 19 C-10.93016285 16.76382309 -11.84370693 14.98742165 -12.41796875 11.359375 C-12.64424596 6.78490609 -12.73682797 3.9824373 -9.9375 0.25 C-6.09545954 -1.38491083 -3.98195819 -1.17983946 0 0 Z " fill="#F7F8F8" transform="translate(665,103)"/>
<path d="M0 0 C0.99 0.33 1.98 0.66 3 1 C3.0501139 5.33755045 3.08605039 9.67493944 3.10986328 14.01269531 C3.11980927 15.48277733 3.13337091 16.95284016 3.15087891 18.42285156 C3.29084432 30.49281022 2.50182584 41.80525624 -1.625 53.25 C-1.85445312 53.91128906 -2.08390625 54.57257813 -2.3203125 55.25390625 C-2.87163101 56.83894698 -3.4344714 58.41997354 -4 60 C-5.32 59.34 -6.64 58.68 -8 58 C-7.81824219 57.36835938 -7.63648438 56.73671875 -7.44921875 56.0859375 C-5.30476473 48.45388064 -3.59127026 40.76463201 -2 33 C-1.82815186 32.24614014 -1.65630371 31.49228027 -1.47924805 30.71557617 C-0.92663629 27.58429722 -0.78517934 24.56489659 -0.68359375 21.38671875 C-0.64169922 20.13955078 -0.59980469 18.89238281 -0.55664062 17.60742188 C-0.51732422 16.31384766 -0.47800781 15.02027344 -0.4375 13.6875 C-0.39431641 12.37458984 -0.35113281 11.06167969 -0.30664062 9.70898438 C-0.20072773 6.47275712 -0.09865115 3.23645542 0 0 Z " fill="#56A7CD" transform="translate(256,125)"/>
<path d="M0 0 C0.66 0.33 1.32 0.66 2 1 C2.59082031 2.87915039 2.59082031 2.87915039 3.078125 5.34765625 C3.26681152 6.25604248 3.45549805 7.16442871 3.64990234 8.1003418 C3.84793457 9.077854 4.0459668 10.05536621 4.25 11.0625 C5.94667485 19.07312664 8.02393394 26.61370945 11.20800781 34.16235352 C13.09427726 38.71716822 13.09427726 38.71716822 12 42 C12.39397335 44.63804589 12.39397335 44.63804589 13 47 C4.6797238 36.92678728 -1.15996166 19.18581302 -1.125 6.25 C-1.12757812 5.28578125 -1.13015625 4.3215625 -1.1328125 3.328125 C-1 1 -1 1 0 0 Z " fill="#5089BF" transform="translate(18,153)"/>
<path d="M0 0 C1.45892004 0.11795524 2.91711177 0.24491151 4.375 0.375 C5.59316406 0.47941406 5.59316406 0.47941406 6.8359375 0.5859375 C9.44452816 0.92730862 11.87829104 1.42020807 14.4375 2 C21.12185307 3.37182148 27.82208062 3.45685369 34.625 3.625 C35.91535156 3.66367187 37.20570313 3.70234375 38.53515625 3.7421875 C41.6899687 3.83566342 44.84478727 3.92142313 48 4 C48 4.33 48 4.66 48 5 C45.36 5.33 42.72 5.66 40 6 C40 6.33 40 6.66 40 7 C41.98 7.33 43.96 7.66 46 8 C46 8.33 46 8.66 46 9 C36.33530543 9.31515308 26.95446738 9.11145054 17.375 7.6875 C16.5593457 7.56979248 15.74369141 7.45208496 14.90332031 7.33081055 C9.61738424 6.48326048 4.95627013 5.0244719 0 3 C0 2.01 0 1.02 0 0 Z " fill="#4B87B9" transform="translate(101,254)"/>
<path d="M0 0 C0.495 1.485 0.495 1.485 1 3 C-12.0690283 8.78112311 -25.62529312 12.22193332 -39.9375 12.0625 C-40.71673828 12.05798828 -41.49597656 12.05347656 -42.29882812 12.04882812 C-44.19925268 12.03716908 -46.09963706 12.01923877 -48 12 C-48.33 11.01 -48.66 10.02 -49 9 C-48.4423999 8.96036133 -47.8847998 8.92072266 -47.31030273 8.87988281 C-36.66358905 8.08807791 -26.65408551 6.9920193 -16.39453125 3.94921875 C-12.03601978 2.73044051 -7.67046155 2.03298585 -3.1953125 1.39453125 C-1.03087914 1.22117349 -1.03087914 1.22117349 0 0 Z " fill="#468ABE" transform="translate(184,250)"/>
<path d="M0 0 C0.99 0.33 1.98 0.66 3 1 C1.60969237 5.4869019 -0.4178182 7.52841737 -4 10.5 C-9.46461378 15.28063709 -13.71711695 20.47592617 -18.00390625 26.3125 C-20 29 -20 29 -22 31 C-23.32 30.34 -24.64 29.68 -26 29 C-8.84345554 6.03943305 -8.84345554 6.03943305 0 0 Z " fill="#51AAD6" transform="translate(60,44)"/>
<path d="M0 0 C0.66 0.33 1.32 0.66 2 1 C2 4 2 4 0.8125 5.5078125 C-7.79443968 13.18728023 -18.3779242 18.63514181 -29 23 C-29.33 22.34 -29.66 21.68 -30 21 C-30.33 21.33 -30.66 21.66 -31 22 C-32.99958364 22.04080783 -35.00045254 22.04254356 -37 22 C-34.20276609 20.1351774 -31.41132321 18.80214549 -28.3503418 17.4362793 C-19.48540865 13.45751446 -11.76944401 8.83571572 -4 3 C-3.22269531 2.41863281 -2.44539063 1.83726562 -1.64453125 1.23828125 C-0.83048828 0.62533203 -0.83048828 0.62533203 0 0 Z " fill="#4A91C2" transform="translate(214,230)"/>
<path d="M0 0 C-1.70465295 5.67039996 -4.27474432 10.67288424 -6.99023438 15.90234375 C-9.34668524 20.50873922 -11.26057279 25.1252416 -13 30 C-13.33 29.34 -13.66 28.68 -14 28 C-14.66 28 -15.32 28 -16 28 C-16 28.99 -16 29.98 -16 31 C-16.66 31 -17.32 31 -18 31 C-16.43245675 24.35426977 -13.89219685 18.2820927 -11 12.125 C-10.65582031 11.38773682 -10.31164062 10.65047363 -9.95703125 9.89086914 C-5.22951957 0 -5.22951957 0 0 0 Z " fill="#4F9ECE" transform="translate(38,74)"/>
<path d="M0 0 C6.8359375 -0.1953125 6.8359375 -0.1953125 9 0 C11 2 11 2 11.125 4.875 C11.08375 5.90625 11.0425 6.9375 11 8 C10.78918149 11.89459074 10.78918149 11.89459074 12 15 C11.01 15 10.02 15 9 15 C8.34 13.35 7.68 11.7 7 10 C5.68 10 4.36 10 3 10 C3 11.65 3 13.3 3 15 C2.01 15 1.02 15 0 15 C0 10.05 0 5.1 0 0 Z " fill="#65B3D0" transform="translate(453,151)"/>
<path d="M0 0 C6.8359375 -0.1953125 6.8359375 -0.1953125 9 0 C9.66 0.66 10.32 1.32 11 2 C10.625 4.375 10.625 4.375 10 7 C9.78918149 10.89459074 9.78918149 10.89459074 11 14 C10.01 14 9.02 14 8 14 C7.34 12.35 6.68 10.7 6 9 C4.68 9 3.36 9 2 9 C2 10.65 2 12.3 2 14 C1.34 14 0.68 14 0 14 C0 9.38 0 4.76 0 0 Z " fill="#4DABCF" transform="translate(544,152)"/>
<path d="M0 0 C5.969104 4.82608408 10.95891826 10.22357593 16 16 C16.70253906 16.79921875 17.40507812 17.5984375 18.12890625 18.421875 C19.75728818 20.2772435 21.38105856 22.13639538 23 24 C18.88789455 24 16.87873281 21.84220493 13.8125 19.375 C12.64872514 18.45796818 11.48466291 17.54130094 10.3203125 16.625 C9.75473633 16.17640625 9.18916016 15.7278125 8.60644531 15.265625 C5.45198199 12.78040648 2.21997788 10.3991992 -1 8 C-0.01 7.67 0.98 7.34 2 7 C1.42415568 4.61435923 0.77772405 2.33317216 0 0 Z " fill="#5BADD7" transform="translate(200,146)"/>
<path d="M0 0 C3 1 3 1 4.38671875 3.3984375 C4.81597656 4.38070312 5.24523437 5.36296875 5.6875 6.375 C6.34298828 7.84066406 6.34298828 7.84066406 7.01171875 9.3359375 C8 12 8 12 8 15 C7.34 15 6.68 15 6 15 C5.67 14.34 5.34 13.68 5 13 C3.10466658 12.53476937 3.10466658 12.53476937 0.9375 12.375 C-0.361875 12.25125 -1.66125 12.1275 -3 12 C-3 12.99 -3 13.98 -3 15 C-3.99 14.67 -4.98 14.34 -6 14 C-4.02 9.38 -2.04 4.76 0 0 Z " fill="#62B9D9" transform="translate(602,151)"/>
<path d="M0 0 C3 1 3 1 4.38671875 3.3984375 C4.81597656 4.38070312 5.24523437 5.36296875 5.6875 6.375 C6.34298828 7.84066406 6.34298828 7.84066406 7.01171875 9.3359375 C8 12 8 12 8 15 C7.34 15 6.68 15 6 15 C6 14.01 6 13.02 6 12 C3.03 12 0.06 12 -3 12 C-3.33 12.99 -3.66 13.98 -4 15 C-4.66 15 -5.32 15 -6 15 C-4.36041242 9.76727367 -2.61047965 4.84803364 0 0 Z " fill="#5CAED4" transform="translate(351,151)"/>
<path d="M0 0 C4.40431982 2.20215991 5.5721404 3.83795497 8 8 C8 8.66 8 9.32 8 10 C8.66 10 9.32 10 10 10 C10 6.7 10 3.4 10 0 C10.66 0 11.32 0 12 0 C12 4.95 12 9.9 12 15 C11.01 15 10.02 15 9 15 C7.39453125 13.03125 7.39453125 13.03125 5.8125 10.5 C5.28269531 9.6646875 4.75289062 8.829375 4.20703125 7.96875 C3.80871094 7.3190625 3.41039062 6.669375 3 6 C2.67 8.97 2.34 11.94 2 15 C1.34 15 0.68 15 0 15 C0 10.05 0 5.1 0 0 Z " fill="#58AFD1" transform="translate(571,151)"/>
<path d="M0 0 C1.93938819 2.90908228 2.96774957 5.40862379 4.125 8.6875 C4.47820313 9.68136719 4.83140625 10.67523438 5.1953125 11.69921875 C5.46085937 12.45847656 5.72640625 13.21773437 6 14 C3.69 14.33 1.38 14.66 -1 15 C-3.82783576 11.80331609 -4.63139654 9.23893982 -5 5 C-4 3 -4 3 -1 2 C-0.67 1.34 -0.34 0.68 0 0 Z " fill="#233B66" transform="translate(17,182)"/>
<path d="M0 0 C3.63 0 7.26 0 11 0 C11 0.66 11 1.32 11 2 C8.36 2 5.72 2 3 2 C3 3.32 3 4.64 3 6 C5.31 6 7.62 6 10 6 C10 6.66 10 7.32 10 8 C7.69 8 5.38 8 3 8 C3 9.65 3 11.3 3 13 C5.64 13 8.28 13 11 13 C11 13.66 11 14.32 11 15 C7.37 15 3.74 15 0 15 C0 10.05 0 5.1 0 0 Z " fill="#7FC1D9" transform="translate(557,151)"/>
<path d="M0 0 C3.63 0 7.26 0 11 0 C11 0.66 11 1.32 11 2 C8.03 2 5.06 2 2 2 C2 3.32 2 4.64 2 6 C4.64 6 7.28 6 10 6 C10 6.66 10 7.32 10 8 C7.69 8 5.38 8 3 8 C3 9.65 3 11.3 3 13 C5.64 13 8.28 13 11 13 C11 13.66 11 14.32 11 15 C7.37 15 3.74 15 0 15 C0 10.05 0 5.1 0 0 Z " fill="#62B2D1" transform="translate(440,151)"/>
<path d="M0 0 C0.66 0.33 1.32 0.66 2 1 C2 1.66 2 2.32 2 3 C-0.31 3 -2.62 3 -5 3 C-5 3.66 -5 4.32 -5 5 C-1.535 6.485 -1.535 6.485 2 8 C2.125 10.375 2.125 10.375 2 13 C0 15 0 15 -3.5 15.1875 C-7 15 -7 15 -9 14 C-9 13.34 -9 12.68 -9 12 C-6.36 12 -3.72 12 -1 12 C-1 11.34 -1 10.68 -1 10 C-2.134375 9.5875 -3.26875 9.175 -4.4375 8.75 C-8 7 -8 7 -9.125 5 C-9 3 -9 3 -7.9375 1.25 C-5.21344505 -0.50745481 -3.17703263 -0.27038576 0 0 Z " fill="#6BB3D2" transform="translate(342,151)"/>
<path d="M0 0 C3.3 0 6.6 0 10 0 C10 0.66 10 1.32 10 2 C7.36 2 4.72 2 2 2 C2 3.32 2 4.64 2 6 C4.31 6 6.62 6 9 6 C9 6.66 9 7.32 9 8 C6.69 8 4.38 8 2 8 C2 9.65 2 11.3 2 13 C4.97 13 7.94 13 11 13 C11 13.66 11 14.32 11 15 C7.37 15 3.74 15 0 15 C0 10.05 0 5.1 0 0 Z " fill="#53A9CD" transform="translate(373,151)"/>
<path d="M0 0 C0.94875 0.04125 1.8975 0.0825 2.875 0.125 C2.875 1.115 2.875 2.105 2.875 3.125 C1.225 3.125 -0.425 3.125 -2.125 3.125 C-2.455 4.115 -2.785 5.105 -3.125 6.125 C-2.17625 6.24875 -1.2275 6.3725 -0.25 6.5 C2.875 7.125 2.875 7.125 4.875 9.125 C5 11.75 5 11.75 4.875 14.125 C1.88905576 15.61797212 -0.83353624 15.24255228 -4.125 15.125 C-4.785 14.795 -5.445 14.465 -6.125 14.125 C-6.125 13.465 -6.125 12.805 -6.125 12.125 C-3.485 12.125 -0.845 12.125 1.875 12.125 C2.205 11.465 2.535 10.805 2.875 10.125 C1.740625 9.815625 0.60625 9.50625 -0.5625 9.1875 C-4.125 8.125 -4.125 8.125 -5.125 7.125 C-5.3125 4.6875 -5.3125 4.6875 -5.125 2.125 C-3.125 0.125 -3.125 0.125 0 0 Z " fill="#59B3DD" transform="translate(629.125,150.875)"/>
<path d="M0 0 C3 2 3 2 3.43237305 4.01538086 C3.45855713 4.82370361 3.48474121 5.63202637 3.51171875 6.46484375 C3.54716797 7.34720703 3.58261719 8.22957031 3.61914062 9.13867188 C3.64169922 10.06228516 3.66425781 10.98589844 3.6875 11.9375 C3.72166016 12.85724609 3.75582031 13.77699219 3.79101562 14.72460938 C3.91350059 18.15168864 4 21.570629 4 25 C3.67 25 3.34 25 3 25 C2.67 26.65 2.34 28.3 2 30 C1.67 30 1.34 30 1 30 C0.12313415 23.26815587 -0.12387197 16.7214632 -0.0625 9.9375 C-0.05573242 8.49600586 -0.05573242 8.49600586 -0.04882812 7.02539062 C-0.03717706 4.68352578 -0.02082025 2.34179819 0 0 Z " fill="#5896C9" transform="translate(15,129)"/>
<path d="M0 0 C1.670625 0.061875 1.670625 0.061875 3.375 0.125 C3.705 1.115 4.035 2.105 4.375 3.125 C2.065 3.125 -0.245 3.125 -2.625 3.125 C-2.625 3.785 -2.625 4.445 -2.625 5.125 C0.84 6.61 0.84 6.61 4.375 8.125 C4.375 10.105 4.375 12.085 4.375 14.125 C1.63594655 15.49452673 -0.59587332 15.25121361 -3.625 15.125 C-4.285 14.795 -4.945 14.465 -5.625 14.125 C-5.625 13.465 -5.625 12.805 -5.625 12.125 C-3.315 12.125 -1.005 12.125 1.375 12.125 C1.375 11.465 1.375 10.805 1.375 10.125 C-0.0790625 9.5371875 -0.0790625 9.5371875 -1.5625 8.9375 C-4.625 7.125 -4.625 7.125 -5.625 4.5625 C-5.625 0.30072448 -4.00423317 0.13807701 0 0 Z " fill="#5BACC9" transform="translate(432.625,150.875)"/>
<path d="M0 0 C0.94875 0.04125 1.8975 0.0825 2.875 0.125 C2.875 1.115 2.875 2.105 2.875 3.125 C1.225 3.125 -0.425 3.125 -2.125 3.125 C-2.455 4.115 -2.785 5.105 -3.125 6.125 C-2.17625 6.24875 -1.2275 6.3725 -0.25 6.5 C2.875 7.125 2.875 7.125 4.875 9.125 C4.625 11.6875 4.625 11.6875 3.875 14.125 C0.91835481 15.6033226 -1.86729737 15.18532783 -5.125 15.125 C-5.455 14.135 -5.785 13.145 -6.125 12.125 C-3.485 12.125 -0.845 12.125 1.875 12.125 C1.875 11.465 1.875 10.805 1.875 10.125 C-0.435 9.135 -2.745 8.145 -5.125 7.125 C-5.25 4.75 -5.25 4.75 -5.125 2.125 C-3.125 0.125 -3.125 0.125 0 0 Z " fill="#5BAED1" transform="translate(391.125,150.875)"/>
<path d="M0 0 C5.28 0 10.56 0 16 0 C12 5 12 5 8.5625 5.9375 C5.05117271 5.99910223 3.08713094 5.59034018 0 4 C0 2.68 0 1.36 0 0 Z " fill="#74BDDE" transform="translate(158,107)"/>
<path d="M0 0 C3.3 0 6.6 0 10 0 C10 0.66 10 1.32 10 2 C7.36 2 4.72 2 2 2 C2 3.65 2 5.3 2 7 C4.31 7 6.62 7 9 7 C9 7.33 9 7.66 9 8 C6.69 8 4.38 8 2 8 C2 9.65 2 11.3 2 13 C4.64 13 7.28 13 10 13 C10 13.66 10 14.32 10 15 C6.7 15 3.4 15 0 15 C0 10.05 0 5.1 0 0 Z " fill="#4FA9C9" transform="translate(502,151)"/>
<path d="M0 0 C0 0.99 0 1.98 0 3 C-1.134375 2.814375 -2.26875 2.62875 -3.4375 2.4375 C-4.613125 2.293125 -5.78875 2.14875 -7 2 C-8.40432936 3.17718985 -8.40432936 3.17718985 -8.125 6.5 C-8.40432936 9.82281015 -8.40432936 9.82281015 -7 11 C-4.32941149 11.14115161 -1.67567762 11.04247107 1 11 C0.01 12.485 0.01 12.485 -1 14 C-4.375 14.5 -4.375 14.5 -8 14 C-10.5 11.9375 -10.5 11.9375 -12 9 C-12 5.19715329 -11.7968187 2.98069994 -9.375 0 C-6.01155688 -1.41618658 -3.50376557 -0.74118118 0 0 Z " fill="#63B7D4" transform="translate(498,152)"/>
<path d="M0 0 C3 1 3 1 4.16796875 3.06640625 C5.11197917 5.37760417 6.05598958 7.68880208 7 10 C8.32 6.7 9.64 3.4 11 0 C11.66 0 12.32 0 13 0 C12.37321829 3.66172475 11.35548154 6.8818995 9.9375 10.3125 C9.57527344 11.19550781 9.21304687 12.07851562 8.83984375 12.98828125 C8.56269531 13.65214844 8.28554688 14.31601563 8 15 C7.01 15 6.02 15 5 15 C4.16013916 13.06532058 3.32831973 11.12714871 2.5 9.1875 C2.0359375 8.10855469 1.571875 7.02960938 1.09375 5.91796875 C0 3 0 3 0 0 Z " fill="#5FB1CB" transform="translate(466,151)"/>
<path d="M0 0 C3.5625 0.25 3.5625 0.25 6.5625 2.25 C4.96362446 3.73488441 3.35821095 5.21273145 1.75 6.6875 C0.41001953 7.92306641 0.41001953 7.92306641 -0.95703125 9.18359375 C-3.4375 11.25 -3.4375 11.25 -6.4375 12.25 C-6.128125 11.651875 -5.81875 11.05375 -5.5 10.4375 C-4.33540296 8.16043228 -4.33540296 8.16043228 -3.4375 5.25 C-4.0975 4.26 -4.7575 3.27 -5.4375 2.25 C-3.4375 0.25 -3.4375 0.25 0 0 Z " fill="#233F6E" transform="translate(223.4375,235.75)"/>
<path d="M0 0 C1.32 0.66 2.64 1.32 4 2 C3.23832543 3.46313772 2.46529293 4.92036661 1.6875 6.375 C1.25824219 7.18710938 0.82898438 7.99921875 0.38671875 8.8359375 C-1 11 -1 11 -4 13 C-6.6875 13.125 -6.6875 13.125 -9 13 C-8.54625 12.4225 -8.0925 11.845 -7.625 11.25 C-5.98079154 9.12040136 -5.98079154 9.12040136 -5.0625 7 C-3.75536069 4.53950248 -1.99238245 2.9259697 0 1 C0 0.67 0 0.34 0 0 Z " fill="#18345E" transform="translate(217,239)"/>
<path d="M0 0 C7.59 0 15.18 0 23 0 C23 0.33 23 0.66 23 1 C20.36 1.33 17.72 1.66 15 2 C15 2.33 15 2.66 15 3 C17.97 3.495 17.97 3.495 21 4 C21 4.33 21 4.66 21 5 C15.06 5 9.12 5 3 5 C3 4.01 3 3.02 3 2 C2.01 1.34 1.02 0.68 0 0 Z " fill="#7AA7C9" transform="translate(126,258)"/>
<path d="M0 0 C0.66 0.33 1.32 0.66 2 1 C1.84660156 2.22589844 1.69320313 3.45179687 1.53515625 4.71484375 C0.87540939 10.65256546 0.65692263 16.59492399 0.4375 22.5625 C0.39431641 23.66658203 0.35113281 24.77066406 0.30664062 25.90820312 C0.20155613 28.60537185 0.09940587 31.30261703 0 34 C-0.33 34 -0.66 34 -1 34 C-1.33 27.73 -1.66 21.46 -2 15 C-2.33 15 -2.66 15 -3 15 C-3 12.03 -3 9.06 -3 6 C-2.34 6 -1.68 6 -1 6 C-1.0309375 4.7934375 -1.0309375 4.7934375 -1.0625 3.5625 C-1 1 -1 1 0 0 Z " fill="#478BC1" transform="translate(19,117)"/>
<path d="M0 0 C1.23327026 0.0314209 1.23327026 0.0314209 2.49145508 0.06347656 C3.38413086 0.07636719 4.27680664 0.08925781 5.1965332 0.10253906 C6.12530273 0.13605469 7.05407227 0.16957031 8.01098633 0.20410156 C8.95135742 0.22214844 9.89172852 0.24019531 10.8605957 0.25878906 C13.18258522 0.30593606 15.50252322 0.37171925 17.82348633 0.45410156 C16.83348633 0.78410156 15.84348633 1.11410156 14.82348633 1.45410156 C14.82348633 2.11410156 14.82348633 2.77410156 14.82348633 3.45410156 C8.22348633 3.78410156 1.62348633 4.11410156 -5.17651367 4.45410156 C-2.17651367 0.45410156 -2.17651367 0.45410156 0 0 Z " fill="#42AED7" transform="translate(129.176513671875,16.5458984375)"/>
<path d="M0 0 C0.99 0 1.98 0 3 0 C3 4.29 3 8.58 3 13 C5.31 13 7.62 13 10 13 C10 13.66 10 14.32 10 15 C6.7 15 3.4 15 0 15 C0 10.05 0 5.1 0 0 Z " fill="#6AB4D3" transform="translate(361,151)"/>
<path d="M0 0 C0.66 0 1.32 0 2 0 C2 4.29 2 8.58 2 13 C4.31 13 6.62 13 9 13 C9 13.66 9 14.32 9 15 C5.7 15 2.4 15 -1 15 C-1.02685412 12.68756208 -1.04632841 10.3750373 -1.0625 8.0625 C-1.07410156 6.77472656 -1.08570313 5.48695313 -1.09765625 4.16015625 C-1 1 -1 1 0 0 Z " fill="#6EBCD6" transform="translate(613,151)"/>
<path d="M0 0 C0.66 0.33 1.32 0.66 2 1 C-3.61 6.61 -9.22 12.22 -15 18 C-15.66 17.34 -16.32 16.68 -17 16 C-14.5457323 13.51677995 -12.08591435 11.03913187 -9.625 8.5625 C-8.92632812 7.85544922 -8.22765625 7.14839844 -7.5078125 6.41992188 C-6.8375 5.74638672 -6.1671875 5.07285156 -5.4765625 4.37890625 C-4.85861816 3.7557251 -4.24067383 3.13254395 -3.60400391 2.49047852 C-2 1 -2 1 0 0 Z " fill="#4B96C3" transform="translate(93,140)"/>
<path d="M0 0 C5.09210286 3.56320845 9.22660027 7.04741286 13 12 C11.02 12.99 11.02 12.99 9 14 C5.46413986 10.82679218 3.41421969 8.83256305 3 4 C2.34 4 1.68 4 1 4 C0.67 2.68 0.34 1.36 0 0 Z " fill="#63BBE1" transform="translate(212,42)"/>
<path d="M0 0 C3.96 0 7.92 0 12 0 C12 0.66 12 1.32 12 2 C10.35 2 8.7 2 7 2 C7 6.29 7 10.58 7 15 C6.34 15 5.68 15 5 15 C5 10.71 5 6.42 5 2 C3.35 2 1.7 2 0 2 C0 1.34 0 0.68 0 0 Z " fill="#5DABC9" transform="translate(585,151)"/>
<path d="M0 0 C0.66 0.33 1.32 0.66 2 1 C0.35821735 5.77609498 -2.26546702 9.79382904 -5 14 C-6.32 13.01 -7.64 12.02 -9 11 C-8.26829419 9.65654015 -7.51394247 8.32539416 -6.75 7 C-6.33234375 6.2575 -5.9146875 5.515 -5.484375 4.75 C-4.99453125 4.1725 -4.5046875 3.595 -4 3 C-2.68 3 -1.36 3 0 3 C0 2.01 0 1.02 0 0 Z " fill="#569DCA" transform="translate(243,197)"/>
<path d="M0 0 C7.48291572 6.15034169 7.48291572 6.15034169 10 10 C9.01 10.33 8.02 10.66 7 11 C7 10.34 7 9.68 7 9 C6.34 9 5.68 9 5 9 C5 8.34 5 7.68 5 7 C4.01 7.33 3.02 7.66 2 8 C0.68 6.68 -0.64 5.36 -2 4 C-1.34 2.68 -0.68 1.36 0 0 Z " fill="#4A88BB" transform="translate(46,216)"/>
<path d="M0 0 C0.33 0 0.66 0 1 0 C1 1.98 1 3.96 1 6 C3.64 6 6.28 6 9 6 C9 6.33 9 6.66 9 7 C6.69 7 4.38 7 2 7 C2 8.65 2 10.3 2 12 C4.64 12 7.28 12 10 12 C10 12.66 10 13.32 10 14 C6.7 14 3.4 14 0 14 C0 9.38 0 4.76 0 0 Z " fill="#44A7D1" transform="translate(558,152)"/>
<path d="M0 0 C0.99 0.33 1.98 0.66 3 1 C3 5.62 3 10.24 3 15 C2.01 15 1.02 15 0 15 C0 10.05 0 5.1 0 0 Z " fill="#75BDD6" transform="translate(481,151)"/>
<path d="M0 0 C0.99 0.99 1.98 1.98 3 3 C2.01 3.495 2.01 3.495 1 4 C1.99 4.66 2.98 5.32 4 6 C4 6.99 4 7.98 4 9 C0.62537285 8.45276317 -1.08235 7.9451 -4 6 C-4 5.01 -4 4.02 -4 3 C-3.34 3 -2.68 3 -2 3 C-2 2.34 -2 1.68 -2 1 C-1.34 0.67 -0.68 0.34 0 0 Z " fill="#162E58" transform="translate(30,210)"/>
<path d="M0 0 C0.66 0.33 1.32 0.66 2 1 C1.69381595 4.67420866 1.24228216 5.78135513 -1.5625 8.3125 C-2.366875 8.869375 -3.17125 9.42625 -4 10 C-4.33 9.01 -4.66 8.02 -5 7 C-6.98 7 -8.96 7 -11 7 C-11 6.67 -11 6.34 -11 6 C-9.9275 5.7525 -8.855 5.505 -7.75 5.25 C-4.00350563 4.00116854 -2.47926118 2.97511342 0 0 Z " fill="#4AA9D8" transform="translate(174,107)"/>
<path d="M0 0 C1.32 0.66 2.64 1.32 4 2 C1.19195732 4.96404505 -1.18315774 7.44499019 -5 9 C-5.66 8.34 -6.32 7.68 -7 7 C-4.69 4.69 -2.38 2.38 0 0 Z " fill="#5092C1" transform="translate(98,164)"/>
<path d="M0 0 C1.66611905 -0.042721 3.33382885 -0.04063832 5 0 C6 1 6 1 6.1875 3.4375 C6 6 6 6 4 8 C-2.32258065 8.33870968 -2.32258065 8.33870968 -5 7 C-5 6.34 -5 5.68 -5 5 C-2.36 5 0.28 5 3 5 C3.22609337 2.87635519 3.22609337 2.87635519 1.5 1.375 C1.005 0.92125 0.51 0.4675 0 0 Z " fill="#53A7D4" transform="translate(338,158)"/>
<path d="M0 0 C0 0.99 0 1.98 0 3 C-1.28926992 3.36279456 -2.58153272 3.71496698 -3.875 4.0625 C-4.95394531 4.35833984 -4.95394531 4.35833984 -6.0546875 4.66015625 C-8 5 -8 5 -10 4 C-10 3.01 -10 2.02 -10 1 C-6.78548731 -0.60725635 -3.56387464 -0.05748185 0 0 Z " fill="#52B6DA" transform="translate(116,20)"/>
<path d="M0 0 C0.33 0.66 0.66 1.32 1 2 C1.99 2.33 2.98 2.66 4 3 C1.69 4.98 -0.62 6.96 -3 9 C-3.66 8.34 -4.32 7.68 -5 7 C-3.70700306 4.11562221 -2.34058637 2.12780579 0 0 Z " fill="#569BC6" transform="translate(220,224)"/>
<path d="M0 0 C0.66 0.33 1.32 0.66 2 1 C-0.97 8.92 -0.97 8.92 -4 17 C-4.66 17 -5.32 17 -6 17 C-5.49487476 10.77012202 -2.67395877 5.54525767 0 0 Z " fill="#66BCD4" transform="translate(533,151)"/>
<path d="M0 0 C2.31 0 4.62 0 7 0 C7.33 1.65 7.66 3.3 8 5 C5.36 5 2.72 5 0 5 C0 3.35 0 1.7 0 0 Z " fill="#DBEFF6" transform="translate(504,159)"/>
<path d="M0 0 C0.33 0 0.66 0 1 0 C1.10957031 0.73605469 1.21914062 1.47210938 1.33203125 2.23046875 C2.19184219 7.52215074 3.02374969 11.46476144 6 16 C5.67 16.99 5.34 17.98 5 19 C1.04444142 14.27884943 -0.13468481 11.44820882 -0.0625 5.3125 C-0.05347656 4.31863281 -0.04445313 3.32476562 -0.03515625 2.30078125 C-0.02355469 1.54152344 -0.01195313 0.78226563 0 0 Z " fill="#113058" transform="translate(115,227)"/>
<path d="M0 0 C0.66 0.33 1.32 0.66 2 1 C-0.97 8.92 -0.97 8.92 -4 17 C-4.66 17 -5.32 17 -6 17 C-5.34496718 12.94180817 -4.05440879 9.46028718 -2.4375 5.6875 C-1.75494141 4.08455078 -1.75494141 4.08455078 -1.05859375 2.44921875 C-0.53458984 1.23685547 -0.53458984 1.23685547 0 0 Z " fill="#5CB4CE" transform="translate(417,151)"/>
<path d="M0 0 C0.33 0.66 0.66 1.32 1 2 C1.66 2 2.32 2 3 2 C3.66 3.98 4.32 5.96 5 8 C3.02 8 1.04 8 -1 8 C-1.93065133 5.39417629 -2.14917407 4.35801776 -1.0625 1.75 C-0.711875 1.1725 -0.36125 0.595 0 0 Z " fill="#9ACBE0" transform="translate(350,153)"/>
<path d="M0 0 C1.65 0 3.3 0 5 0 C5.38218767 1.65614657 5.71395102 3.32457024 6 5 C5 6 5 6 2.4375 6.0625 C1.2309375 6.0315625 1.2309375 6.0315625 0 6 C0 4.02 0 2.04 0 0 Z " fill="#E0F2F6" transform="translate(546,153)"/>
<path d="M0 0 C1.65 0 3.3 0 5 0 C5.38218767 1.65614657 5.71395102 3.32457024 6 5 C5 6 5 6 2.4375 6.0625 C1.2309375 6.0315625 1.2309375 6.0315625 0 6 C0 4.02 0 2.04 0 0 Z " fill="#E5F0F5" transform="translate(456,153)"/>
<path d="M0 0 C2.79983919 2.52888701 4.50930712 4.19713015 5 8 C5 8.99 5 9.98 5 11 C4.34 11.66 3.68 12.32 3 13 C2.30329584 11.21189234 1.61788811 9.41937948 0.9375 7.625 C0.55464844 6.62726563 0.17179687 5.62953125 -0.22265625 4.6015625 C-1 2 -1 2 0 0 Z " fill="#457FB7" transform="translate(30,192)"/>
<path d="M0 0 C0.99 0.33 1.98 0.66 3 1 C3 2.98 3 4.96 3 7 C0.26094655 8.36952673 -1.97087332 8.12621361 -5 8 C-5.66 7.67 -6.32 7.34 -7 7 C-7 6.34 -7 5.68 -7 5 C-4.69 5 -2.38 5 0 5 C0 3.35 0 1.7 0 0 Z " fill="#5AB3D6" transform="translate(434,158)"/>
<path d="M0 0 C3.875 0.375 3.875 0.375 5.875 1.375 C5.875 2.035 5.875 2.695 5.875 3.375 C2.905 3.375 -0.065 3.375 -3.125 3.375 C-2.795 4.035 -2.465 4.695 -2.125 5.375 C-4.105 5.375 -6.085 5.375 -8.125 5.375 C-5.84586668 1.57644446 -4.41542639 0.0160561 0 0 Z " fill="#DAEFF6" transform="translate(165.125,88.625)"/>
<path d="M0 0 C4.29 0 8.58 0 13 0 C13.33 0.99 13.66 1.98 14 3 C9.71 3 5.42 3 1 3 C0.67 2.01 0.34 1.02 0 0 Z " fill="#3C82B9" transform="translate(135,259)"/>
<path d="M0 0 C0.66 0.33 1.32 0.66 2 1 C-1.63 4.96 -5.26 8.92 -9 13 C-9.33 12.01 -9.66 11.02 -10 10 C-6.7 6.7 -3.4 3.4 0 0 Z " fill="#3D89BA" transform="translate(75,157)"/>
<path d="M0 0 C5.01113235 1.4317521 6.94469549 3.98445693 10 8 C9.01 8.66 8.02 9.32 7 10 C5.83043409 8.52312468 4.66441854 7.04343707 3.5 5.5625 C2.8503125 4.73878906 2.200625 3.91507813 1.53125 3.06640625 C0 1 0 1 0 0 Z " fill="#264163" transform="translate(27,217)"/>
<path d="M0 0 C3.42353587 1.21480305 5.01180815 3.01771223 7 6 C6.01 6.33 5.02 6.66 4 7 C4 6.34 4 5.68 4 5 C3.01 5.33 2.02 5.66 1 6 C-0.5 4.625 -0.5 4.625 -2 3 C-2 2.34 -2 1.68 -2 1 C-1.34 0.67 -0.68 0.34 0 0 Z " fill="#58B6DE" transform="translate(224,54)"/>
<path d="M0 0 C0 0.99 0 1.98 0 3 C-1.0725 2.731875 -2.145 2.46375 -3.25 2.1875 C-4.4875 2.125625 -5.725 2.06375 -7 2 C-9.49210521 4.30068019 -9.49210521 4.30068019 -11 7 C-11.25 4.6875 -11.25 4.6875 -11 2 C-7.73834694 -1.91398368 -4.64693774 -0.98300606 0 0 Z " fill="#57AAC8" transform="translate(498,152)"/>
<path d="M0 0 C4.29 0 8.58 0 13 0 C11.68 1.32 10.36 2.64 9 4 C5.375 3.9375 5.375 3.9375 2 3 C1.34 2.01 0.68 1.02 0 0 Z " fill="#E2F2F6" transform="translate(159,109)"/>
<path d="M0 0 C2.31 0.66 4.62 1.32 7 2 C7 3.32 7 4.64 7 6 C4.03 5.505 4.03 5.505 1 5 C0.67 3.35 0.34 1.7 0 0 Z " fill="#4081B4" transform="translate(88,248)"/>
<path d="M0 0 C1.093125 0.28875 2.18625 0.5775 3.3125 0.875 C3.6425 1.535 3.9725 2.195 4.3125 2.875 C2.87524129 3.04373478 1.43768162 3.20990737 0 3.375 C-0.80050781 3.4678125 -1.60101563 3.560625 -2.42578125 3.65625 C-4.6875 3.875 -4.6875 3.875 -7.6875 3.875 C-5.13545251 0.50629731 -4.34588684 -0.1473182 0 0 Z " fill="#D8E8F0" transform="translate(106.6875,165.125)"/>
<path d="M0 0 C0.99 0 1.98 0 3 0 C6 3.33333333 6 3.33333333 6 6 C4.02 6 2.04 6 0 6 C-1.125 2.25 -1.125 2.25 0 0 Z " fill="#A4D3E6" transform="translate(600,155)"/>
<path d="M0 0 C0.99 0.33 1.98 0.66 3 1 C3.05422947 2.4370809 3.09289723 3.87475462 3.125 5.3125 C3.14820313 6.11300781 3.17140625 6.91351563 3.1953125 7.73828125 C3 10 3 10 1 13 C0.67 8.71 0.34 4.42 0 0 Z " fill="#48A6CD" transform="translate(256,125)"/>
<path d="M0 0 C3.96 0 7.92 0 12 0 C12 0.66 12 1.32 12 2 C10.56589632 2.24954005 9.12739928 2.47392642 7.6875 2.6875 C6.88699219 2.81511719 6.08648437 2.94273437 5.26171875 3.07421875 C3 3 3 3 0 0 Z " fill="#5094C6" transform="translate(100,184)"/>
<path d="M0 0 C1.32 0.33 2.64 0.66 4 1 C4.6875 3.3125 4.6875 3.3125 5 6 C3.5625 7.8125 3.5625 7.8125 2 9 C0.50178941 5.62902617 0 3.79557881 0 0 Z " fill="#4884BC" transform="translate(20,172)"/>
<path d="M0 0 C0.66 0 1.32 0 2 0 C1.33501617 4.38889325 -0.18757677 7.9811485 -2 12 C-2.99 11.67 -3.98 11.34 -5 11 C-3.35 7.37 -1.7 3.74 0 0 Z " fill="#6CB7CF" transform="translate(477,151)"/>
<path d="M0 0 C0.66 0 1.32 0 2 0 C0.25 3.875 0.25 3.875 -2 5 C-5.5 5.25 -5.5 5.25 -9 5 C-9.66 4.01 -10.32 3.02 -11 2 C-7.37 2 -3.74 2 0 2 C0 1.34 0 0.68 0 0 Z " fill="#E2EEF4" transform="translate(112,184)"/>
<path d="M0 0 C0.99 0.495 0.99 0.495 2 1 C2 1.99 2 2.98 2 4 C4.64 4 7.28 4 10 4 C10 4.66 10 5.32 10 6 C6.7 6 3.4 6 0 6 C0 4.02 0 2.04 0 0 Z " fill="#4BAED6" transform="translate(502,160)"/>
<path d="M0 0 C2.475 0.495 2.475 0.495 5 1 C5 3.31 5 5.62 5 8 C4.34 8 3.68 8 3 8 C3 6.68 3 5.36 3 4 C2.01 4 1.02 4 0 4 C0 2.68 0 1.36 0 0 Z " fill="#173260" transform="translate(6,153)"/>
<path d="M0 0 C0.66 0 1.32 0 2 0 C1 3 1 3 -1.13671875 4.1796875 C-4.48639941 5.13935044 -7.33300519 5.19529282 -10.8125 5.125 C-11.97394531 5.10695312 -13.13539063 5.08890625 -14.33203125 5.0703125 C-15.21246094 5.04710937 -16.09289062 5.02390625 -17 5 C-17 4.67 -17 4.34 -17 4 C-16.21753906 3.93941406 -15.43507813 3.87882813 -14.62890625 3.81640625 C-13.61699219 3.73261719 -12.60507812 3.64882812 -11.5625 3.5625 C-10.55316406 3.48128906 -9.54382813 3.40007812 -8.50390625 3.31640625 C-6.06359221 3.26788532 -6.06359221 3.26788532 -5 2 C-3.33382885 1.95936168 -1.66611905 1.957279 0 2 C0 1.34 0 0.68 0 0 Z " fill="#36527A" transform="translate(625,126)"/>
<path d="M0 0 C3 1 3 1 4.1875 2.875 C5 5 5 5 5 8 C4.34 8 3.68 8 3 8 C2.34 7.01 1.68 6.02 1 5 C0.01 5.495 0.01 5.495 -1 6 C-0.67 4.02 -0.34 2.04 0 0 Z " fill="#50A8C8" transform="translate(602,151)"/>
<path d="M0 0 C2.375 -0.1875 2.375 -0.1875 5 0 C5.66 0.99 6.32 1.98 7 3 C6 4 6 4 2.9375 4.0625 C1.968125 4.041875 0.99875 4.02125 0 4 C0 2.68 0 1.36 0 0 Z " fill="#F2F8FA" transform="translate(337,153)"/>
<path d="M0 0 C0.94875 0.04125 1.8975 0.0825 2.875 0.125 C2.875 1.115 2.875 2.105 2.875 3.125 C1.225 3.125 -0.425 3.125 -2.125 3.125 C-2.455 4.445 -2.785 5.765 -3.125 7.125 C-3.785 7.125 -4.445 7.125 -5.125 7.125 C-5.25 4.75 -5.25 4.75 -5.125 2.125 C-3.125 0.125 -3.125 0.125 0 0 Z " fill="#5BB1D0" transform="translate(629.125,150.875)"/>
<path d="M0 0 C3.875 1.75 3.875 1.75 5 4 C4.2575 3.95875 3.515 3.9175 2.75 3.875 C-0.08758952 4.00398134 -1.58773938 4.57051222 -4 6 C-2.68 4.02 -1.36 2.04 0 0 Z M-7 8 C-7 8.99 -7 9.98 -7 11 C-7.66 10.67 -8.32 10.34 -9 10 C-8.34 9.34 -7.68 8.68 -7 8 Z " fill="#58B4DC" transform="translate(176,120)"/>
<path d="M0 0 C-0.66 1.98 -1.32 3.96 -2 6 C-2.99 6 -3.98 6 -5 6 C-5.66 5.34 -6.32 4.68 -7 4 C-3.375 0 -3.375 0 0 0 Z " fill="#508FBC" transform="translate(122,179)"/>
<path d="M0 0 C3 1 3 1 4.75 3.9375 C5.1625 4.948125 5.575 5.95875 6 7 C5.67 7.66 5.34 8.32 5 9 C3.5 7.625 3.5 7.625 2 6 C2 5.34 2 4.68 2 4 C1.34 4 0.68 4 0 4 C0 2.68 0 1.36 0 0 Z " fill="#4DA0C4" transform="translate(351,151)"/>
<path d="M0 0 C0.66 0.99 1.32 1.98 2 3 C1.525625 3.474375 1.05125 3.94875 0.5625 4.4375 C-1.68076096 8.11644797 -1.73739578 11.7621112 -2 16 C-2.33 16 -2.66 16 -3 16 C-3.32712342 9.86946489 -3.39366878 5.37330889 0 0 Z " fill="#4A6284" transform="translate(385,101)"/>
<path d="M0 0 C0.66 0.33 1.32 0.66 2 1 C-0.31 3.31 -2.62 5.62 -5 8 C-5.99 7.67 -6.98 7.34 -8 7 C-5.36 4.69 -2.72 2.38 0 0 Z " fill="#304B6E" transform="translate(47,40)"/>
<path d="M0 0 C0 0.66 0 1.32 0 2 C-0.9075 2.28875 -1.815 2.5775 -2.75 2.875 C-5.32202908 3.76531776 -7.61346766 4.71494413 -10 6 C-7.09167817 0.84433858 -5.91982852 -0.15578496 0 0 Z " fill="#67C1E2" transform="translate(152,32)"/>
<path d="M0 0 C0.99 0.33 1.98 0.66 3 1 C2.34 2.98 1.68 4.96 1 7 C-0.32 5.35 -1.64 3.7 -3 2 C-2.01 1.34 -1.02 0.68 0 0 Z " fill="#E4EBF1" transform="translate(34,208)"/>
<path d="M0 0 C1.98 0.66 3.96 1.32 6 2 C6 2.99 6 3.98 6 5 C2.89448334 5 1.64738916 4.4606285 -1 3 C-0.67 2.01 -0.34 1.02 0 0 Z " fill="#172F57" transform="translate(22,205)"/>
<path d="M0 0 C0.33 0 0.66 0 1 0 C1.66 3.3 2.32 6.6 3 10 C1.68 9.67 0.36 9.34 -1 9 C-1.33 9.66 -1.66 10.32 -2 11 C-1.34 7.37 -0.68 3.74 0 0 Z " fill="#6296C5" transform="translate(21,163)"/>
<path d="M0 0 C0 2.31 0 4.62 0 7 C-0.33 6.01 -0.66 5.02 -1 4 C-2.32 4 -3.64 4 -5 4 C-5 3.01 -5 2.02 -5 1 C-3 0 -3 0 0 0 Z " fill="#182B58" transform="translate(12,168)"/>
<path d="M0 0 C0.33 0.66 0.66 1.32 1 2 C2.98 2 4.96 2 7 2 C7 2.33 7 2.66 7 3 C5.02 3.33 3.04 3.66 1 4 C0.67 4.99 0.34 5.98 0 7 C-0.99 6.67 -1.98 6.34 -3 6 C-2.01 4.02 -1.02 2.04 0 0 Z " fill="#46ADD4" transform="translate(599,159)"/>
<path d="M0 0 C2.31 0 4.62 0 7 0 C6.0409375 0.433125 6.0409375 0.433125 5.0625 0.875 C2.84793921 1.82823451 2.84793921 1.82823451 2 4 C3.65 4 5.3 4 7 4 C7 4.33 7 4.66 7 5 C4.69 5 2.38 5 0 5 C0 3.35 0 1.7 0 0 Z " fill="#C1E2EC" transform="translate(504,153)"/>
<path d="M0 0 C0.99 0 1.98 0 3 0 C1.63016497 3.16115776 1.0109362 3.9927092 -2 6 C-2.99 6 -3.98 6 -5 6 C-4 3 -4 3 -1 1 C-0.67 0.67 -0.34 0.34 0 0 Z " fill="#2B4A75" transform="translate(414,123)"/>
<path d="M0 0 C1.65 0.33 3.3 0.66 5 1 C3.8125 2.5 3.8125 2.5 2 4 C-0.6875 4.1875 -0.6875 4.1875 -3 4 C-2.01 2.68 -1.02 1.36 0 0 Z " fill="#50B4D9" transform="translate(127,17)"/>
<path d="M0 0 C0.33 0.66 0.66 1.32 1 2 C2.65 2 4.3 2 6 2 C6 2.33 6 2.66 6 3 C4.824375 3.1546875 4.824375 3.1546875 3.625 3.3125 C0.66954819 3.77595022 0.66954819 3.77595022 -1 7 C-1.66 7 -2.32 7 -3 7 C-1.125 1.125 -1.125 1.125 0 0 Z " fill="#4EA9D3" transform="translate(348,159)"/>
<path d="M0 0 C1.98 0 3.96 0 6 0 C6 0.99 6 1.98 6 3 C5.21625 2.95875 4.4325 2.9175 3.625 2.875 C0.83883881 2.71271266 0.83883881 2.71271266 -1 5 C-0.67 3.35 -0.34 1.7 0 0 Z " fill="#64B0CA" transform="translate(388,151)"/>
<path d="M0 0 C0.66 0.33 1.32 0.66 2 1 C1.34 2.32 0.68 3.64 0 5 C-1.65 4.67 -3.3 4.34 -5 4 C-3.36587557 2.29159719 -2.13093906 1.06546953 0 0 Z " fill="#5FAED8" transform="translate(47,59)"/>
<path d="M0 0 C-0.33 0.99 -0.66 1.98 -1 3 C-2.32 3 -3.64 3 -5 3 C-5.33 2.01 -5.66 1.02 -6 0 C-3.50907189 -1.24546405 -2.58919267 -0.7767578 0 0 Z " fill="#3682B9" transform="translate(173,255)"/>
<path d="M0 0 C1.32 0 2.64 0 4 0 C4.33 0.99 4.66 1.98 5 3 C3.35 3.66 1.7 4.32 0 5 C0 3.35 0 1.7 0 0 Z " fill="#EAF8FB" transform="translate(546,161)"/>
<path d="M0 0 C6.15234375 0.5859375 6.15234375 0.5859375 8 1 C8.33 1.66 8.66 2.32 9 3 C2.25 3.125 2.25 3.125 0 2 C0 1.34 0 0.68 0 0 Z " fill="#66B4DB" transform="translate(333,163)"/>
<path d="M0 0 C-0.66 1.65 -1.32 3.3 -2 5 C-2.99 4.67 -3.98 4.34 -5 4 C-5.33 3.01 -5.66 2.02 -6 1 C-3 0 -3 0 0 0 Z " fill="#4A8FBE" transform="translate(177,252)"/>
<path d="M0 0 C2.97 0.495 2.97 0.495 6 1 C6 1.99 6 2.98 6 4 C3.69 3.34 1.38 2.68 -1 2 C-0.67 1.34 -0.34 0.68 0 0 Z " fill="#6CB7D8" transform="translate(626,157)"/>
<path d="M0 0 C1.98 0 3.96 0 6 0 C6 0.99 6 1.98 6 3 C4.02 3 2.04 3 0 3 C0 2.01 0 1.02 0 0 Z " fill="#F4FCFD" transform="translate(560,154)"/>
<path d="M0 0 C1.98 0.99 1.98 0.99 4 2 C2.25 5.875 2.25 5.875 0 7 C0 4.69 0 2.38 0 0 Z " fill="#F1F7F9" transform="translate(653,127)"/>
<path d="M0 0 C1.875 0.3125 1.875 0.3125 4 1 C4.66 1.99 5.32 2.98 6 4 C4.68 4 3.36 4 2 4 C1.34 2.68 0.68 1.36 0 0 Z " fill="#15315E" transform="translate(510,102)"/>
<path d="M0 0 C0.66 0.66 1.32 1.32 2 2 C1.01 3.485 1.01 3.485 0 5 C-1.32 5 -2.64 5 -4 5 C-2.25 1.125 -2.25 1.125 0 0 Z " fill="#5FA4CE" transform="translate(28,89)"/>
<path d="M0 0 C0.66 1.32 1.32 2.64 2 4 C0.1875 5.0625 0.1875 5.0625 -2 6 C-2.99 5.67 -3.98 5.34 -5 5 C-3.35 3.35 -1.7 1.7 0 0 Z " fill="#60B4DB" transform="translate(52,51)"/>
<path d="M0 0 C0.78375 0.04125 1.5675 0.0825 2.375 0.125 C2.375 1.115 2.375 2.105 2.375 3.125 C0.065 2.795 -2.245 2.465 -4.625 2.125 C-2.625 0.125 -2.625 0.125 0 0 Z " fill="#4EB5D9" transform="translate(166.625,20.875)"/>
</svg>
